<svg xmlns="http://www.w3.org/2000/svg" xmlns:xlink="http://www.w3.org/1999/xlink" width="830" zoomAndPan="magnify" viewBox="0 0 622.5 219" height="292" preserveAspectRatio="xMidYMid meet" version="1.0"><defs><g/></defs><g fill="#092f62" fill-opacity="1"><g transform="translate(196.354405, 75.245345)"><g><path d="M 11.859375 -22.9375 L 14.984375 -21.34375 L 14.15625 -18.109375 L 11.140625 -19.703125 Z M 24.296875 -8.96875 L 23.828125 -10.078125 L 24.53125 -13.03125 L 27.359375 -9.84375 L 25.953125 -10.140625 L 26.421875 -9.203125 L 27.25 -7.375 L 28.078125 -5.078125 L 28.3125 -3.53125 L 28.3125 -2 L 27.953125 -0.46875 L 27.25 0.890625 L 26.421875 1.890625 L 25.359375 3 L 24.296875 4.125 L 23.125 5.015625 L 22.296875 5.609375 L 21.234375 6.375 L 19.9375 7.1875 L 18.640625 7.96875 L 17.21875 8.734375 L 16.046875 9.265625 L 14.625 9.84375 L 13.453125 10.265625 L 12.390625 10.5625 L 10.96875 10.796875 L 9.796875 11.03125 L 6.484375 11.03125 L 5.3125 10.734375 L 4.125 10.203125 L 2.828125 9.265625 L 2 8.203125 L 1.171875 6.71875 L 0.46875 4.84375 L 0.234375 3 L 0 1.421875 L 0 -0.890625 L 0.171875 -2.296875 L 0.46875 -3.484375 L 0.765625 -4.65625 L 1.234375 -4.0625 L 0.890625 -2.828125 L 0.703125 -1 L 0.703125 1.171875 L 1.0625 2.765625 L 1.53125 3.890625 L 2.359375 5.25 L 3.53125 6.3125 L 4.59375 7.015625 L 5.890625 7.546875 L 6.84375 7.84375 L 10.140625 7.84375 L 11.09375 7.671875 L 12.5 7.25 L 13.921875 6.78125 L 15.328125 6.1875 L 16.75 5.609375 L 18.515625 4.71875 L 19.9375 4.015625 L 21.109375 3.296875 L 22.171875 2.65625 L 23.359375 1.828125 L 24.65625 0.890625 L 25.953125 -0.234375 L 27.125 -1.53125 L 27.125 -2.359375 L 26.53125 -3.65625 L 25.234375 -6.671875 Z M 24.296875 -8.96875 "/></g></g></g><g fill="#092f62" fill-opacity="1"><g transform="translate(225.472351, 75.245345)"><g><path d="M 1.625 -35.4375 L 5.09375 -28.125 L 3.09375 -29.375 L 5.453125 -10.140625 L 5.453125 -2.953125 L 4.625 -0.296875 L 4.28125 -0.296875 L 4.28125 -4.484375 L 3.796875 -8.734375 L 1.203125 -31.140625 L 0.734375 -32.265625 Z M 1.625 -35.4375 "/></g></g></g><g fill="#092f62" fill-opacity="1"><g transform="translate(231.800976, 75.245345)"><g><path d="M 16.578125 -4.953125 L 17.390625 -5.1875 L 18.578125 -5.484375 L 20.28125 -5.484375 L 21.046875 -5.359375 L 21.9375 -5.125 L 22.828125 -4.421875 L 23.46875 -3.71875 L 24.53125 -3.25 L 25.125 -3.25 L 25.125 0 L 24 0 L 23.125 -0.234375 L 22.359375 -0.765625 L 21.828125 -1.359375 L 20.875 -2.125 L 20.109375 -2.359375 L 18.40625 -2.359375 L 17.28125 -2.1875 L 16.28125 -1.828125 L 15.28125 -1.296875 L 13.921875 -0.359375 L 12.921875 0.46875 L 11.859375 1.46875 L 10.90625 2.296875 L 10.03125 3.125 L 8.78125 4.25 L 6.484375 6.546875 L 5.609375 7.484375 L 4.3125 8.609375 L 3.25 9.375 L 1.953125 10.140625 L 0.65625 10.4375 L -0.703125 10.328125 L -1.765625 9.84375 L -2.65625 9.078125 L -3.296875 8.140625 L -3.828125 6.375 L -3.828125 4.71875 L -3.59375 3.0625 L -3.1875 1.421875 L -2.765625 0.359375 L -2.0625 -1.125 L -1.421875 -2.234375 L -0.59375 -3.53125 L -0.0625 -2.890625 L -0.890625 -1.171875 L -1.46875 0 L -1.953125 1.0625 L -2.1875 1.953125 L -2.53125 3.125 L -2.71875 4.015625 L -2.71875 6.25 L -2.421875 7.078125 L -1.765625 7.78125 L -0.828125 7.96875 L 0.234375 7.78125 L 1.0625 7.4375 L 1.890625 7.015625 L 2.828125 6.421875 L 3.59375 5.890625 L 4.3125 5.421875 L 5.1875 4.59375 L 5.953125 3.890625 L 10.203125 -0.359375 L 11.859375 -1.890625 L 12.796875 -2.71875 L 13.796875 -3.484375 L 14.75 -4.0625 L 15.5625 -4.546875 Z M 16.578125 -4.953125 "/></g></g></g><g fill="#092f62" fill-opacity="1"><g transform="translate(256.496671, 75.245345)"><g><path d="M 5.78125 -18.171875 L 4.84375 -15.03125 L 0.9375 -17.046875 L 1.890625 -20.28125 Z M 9.796875 -20.515625 L 8.84375 -17.390625 L 5.078125 -19.40625 L 6.015625 -22.640625 Z M 6.484375 -5.015625 L 7.4375 -5.609375 L 8.140625 -6.25 L 8.734375 -7.015625 L 8.734375 -7.78125 L 8.5 -8.3125 L 8.140625 -8.96875 L 7.609375 -9.4375 L 6.84375 -9.4375 L 6.25 -8.90625 L 5.65625 -8.203125 L 5.1875 -7.484375 L 5.125 -6.78125 L 5.546875 -6.015625 L 6.078125 -5.359375 Z M 12.15625 -3.1875 L 12.15625 0 L 11.203125 0 L 9.90625 -0.125 L 8.609375 -0.40625 L 7.484375 -0.890625 L 6.546875 -1.53125 L 5.953125 -2.125 L 4.84375 -1.296875 L 3.78125 -0.703125 L 2.359375 -0.171875 L 1.0625 0 L 0 0 L 0 -3.1875 L 1.703125 -3.1875 L 3.0625 -3.296875 L 4.125 -3.59375 L 4.59375 -4.125 L 4.421875 -4.71875 L 4.25 -5.421875 L 4.25 -7.375 L 4.59375 -9.015625 L 5.1875 -10.328125 L 5.78125 -11.203125 L 6.421875 -11.859375 L 7.3125 -12.328125 L 8.3125 -12.265625 L 9.015625 -11.5625 L 9.375 -10.84375 L 9.671875 -9.671875 L 9.734375 -7.78125 L 9.609375 -6.1875 L 9.203125 -5.125 L 8.78125 -4.484375 L 8.25 -3.953125 L 9.265625 -3.296875 L 10.375 -3.1875 Z M 12.15625 -3.1875 "/></g></g></g><g fill="#092f62" fill-opacity="1"><g transform="translate(268.220438, 75.245345)"><g><path d="M 2.53125 -36.03125 L 6.015625 -28.71875 L 4.015625 -29.953125 L 6.375 -10.734375 L 6.375 -5.3125 L 6.015625 -3.53125 L 5.078125 -2.125 L 4.125 -1.125 L 3.421875 -0.65625 L 2.234375 -0.234375 L 1.0625 0 L 0 0 L 0 -3.25 L 2.59375 -3.25 L 3.65625 -3.53125 L 4.59375 -4.25 L 5.078125 -5.3125 L 4.71875 -9.3125 L 2.125 -31.734375 L 1.65625 -32.84375 Z M 2.53125 -36.03125 "/></g></g></g><g fill="#092f62" fill-opacity="1"><g transform="translate(275.580919, 75.245345)"><g/></g></g><g fill="#092f62" fill-opacity="1"><g transform="translate(284.238593, 75.245345)"><g><path d="M 25.0625 -3.25 L 25.0625 0 L 24.421875 0 L 22.828125 -0.171875 L 21.296875 -1 L 20.28125 -2 L 19.578125 -3.125 L 18.9375 -4.65625 L 18.453125 -6.015625 L 18.171875 -7.1875 L 17.875 -8.84375 L 17.453125 -7.671875 L 16.6875 -6.25 L 15.6875 -5.078125 L 14.796875 -4.125 L 13.734375 -3.125 L 12.859375 -2.421875 L 11.90625 -1.703125 L 10.96875 -1 L 9.609375 -0.125 L 7.90625 0.828125 L 6.71875 1.359375 L 5.359375 1.890625 L 3.953125 2.125 L 2.53125 2.125 L 1.53125 1.765625 L 0.828125 1 L 0.296875 0.125 L -0.0625 -1.53125 L -0.0625 -3.828125 L 0.171875 -5.484375 L 0.703125 -7.25 L 1.421875 -8.90625 L 2.125 -10.328125 L 2.890625 -11.734375 L 3.71875 -12.921875 L 3.78125 -12.265625 L 2.71875 -10.203125 L 1.703125 -7.78125 L 1.125 -6.1875 L 0.9375 -5.015625 L 0.9375 -2.71875 L 1.46875 -1.765625 L 2.1875 -1.296875 L 3 -1.0625 L 4.65625 -1.0625 L 5.546875 -1.359375 L 6.78125 -1.890625 L 8.5 -2.765625 L 9.671875 -3.421875 L 10.796875 -4.1875 L 11.796875 -4.953125 L 12.96875 -5.84375 L 13.859375 -6.609375 L 15.625 -8.375 L 16.046875 -8.96875 L 16.6875 -9.90625 L 17.109375 -10.609375 L 17.34375 -11.328125 L 17.21875 -12.390625 L 16.8125 -13.796875 L 16.15625 -15.5625 L 15.6875 -17.109375 L 15.03125 -18.9375 L 14.453125 -20.515625 L 14.03125 -21.765625 L 13.453125 -23.125 L 13.984375 -26.65625 L 15.03125 -25.1875 L 15.859375 -23.171875 L 16.6875 -21.046875 L 17.390625 -18.9375 L 17.984375 -16.921875 L 18.578125 -14.921875 L 19.046875 -12.859375 L 19.640625 -9.375 L 20.046875 -7.484375 L 20.578125 -6.015625 L 21.171875 -5.015625 L 21.9375 -4.1875 L 22.53125 -3.78125 L 23.296875 -3.421875 L 24.234375 -3.25 Z M 25.0625 -3.25 "/></g></g></g><g fill="#092f62" fill-opacity="1"><g transform="translate(308.875329, 75.245345)"><g><path d="M 5.78125 -18.171875 L 4.84375 -15.03125 L 0.9375 -17.046875 L 1.890625 -20.28125 Z M 9.796875 -20.515625 L 8.84375 -17.390625 L 5.078125 -19.40625 L 6.015625 -22.640625 Z M 6.484375 -5.015625 L 7.4375 -5.609375 L 8.140625 -6.25 L 8.734375 -7.015625 L 8.734375 -7.78125 L 8.5 -8.3125 L 8.140625 -8.96875 L 7.609375 -9.4375 L 6.84375 -9.4375 L 6.25 -8.90625 L 5.65625 -8.203125 L 5.1875 -7.484375 L 5.125 -6.78125 L 5.546875 -6.015625 L 6.078125 -5.359375 Z M 12.15625 -3.1875 L 12.15625 0 L 11.203125 0 L 9.90625 -0.125 L 8.609375 -0.40625 L 7.484375 -0.890625 L 6.546875 -1.53125 L 5.953125 -2.125 L 4.84375 -1.296875 L 3.78125 -0.703125 L 2.359375 -0.171875 L 1.0625 0 L 0 0 L 0 -3.1875 L 1.703125 -3.1875 L 3.0625 -3.296875 L 4.125 -3.59375 L 4.59375 -4.125 L 4.421875 -4.71875 L 4.25 -5.421875 L 4.25 -7.375 L 4.59375 -9.015625 L 5.1875 -10.328125 L 5.78125 -11.203125 L 6.421875 -11.859375 L 7.3125 -12.328125 L 8.3125 -12.265625 L 9.015625 -11.5625 L 9.375 -10.84375 L 9.671875 -9.671875 L 9.734375 -7.78125 L 9.609375 -6.1875 L 9.203125 -5.125 L 8.78125 -4.484375 L 8.25 -3.953125 L 9.265625 -3.296875 L 10.375 -3.1875 Z M 12.15625 -3.1875 "/></g></g></g><g fill="#092f62" fill-opacity="1"><g transform="translate(320.599096, 75.245345)"><g><path d="M 8.734375 -2.59375 L 7.609375 -2 L 6.546875 -1.53125 L 5.609375 -1.171875 L 4.546875 -0.765625 L 3.421875 -0.40625 L 2.1875 -0.125 L 0.65625 0 L 0 0 L 0 -3.1875 L 1.65625 -3.1875 L 3.59375 -3.296875 L 4.953125 -3.59375 L 5.78125 -3.828125 L 6.375 -4.125 L 4.890625 -5.1875 L 3.78125 -6.1875 L 3.0625 -6.953125 L 2.296875 -8.015625 L 1.765625 -9.265625 L 1.59375 -10.203125 L 1.59375 -11.140625 L 1.828125 -12.5 L 2.1875 -13.390625 L 2.65625 -14.328125 L 3.296875 -15.15625 L 4.359375 -16.15625 L 5.3125 -16.625 L 6.25 -16.921875 L 7.1875 -17.046875 L 8.84375 -17.046875 L 9.796875 -16.984375 L 10.96875 -16.625 L 12.328125 -16.046875 L 13.203125 -15.390625 L 13.734375 -14.921875 L 13.734375 -14.515625 L 12.859375 -14.515625 L 12.15625 -14.75 L 11.328125 -14.859375 L 9.078125 -14.859375 L 7.84375 -14.6875 L 6.421875 -14.453125 L 5.1875 -14.09375 L 4.0625 -13.625 L 3.125 -12.96875 L 2.828125 -12.5625 L 2.828125 -11.4375 L 3.1875 -10.734375 L 3.828125 -9.90625 L 4.65625 -9.015625 L 5.546875 -8.203125 L 6.671875 -7.4375 L 7.84375 -6.84375 L 8.78125 -6.421875 L 9.796875 -6.140625 L 10.609375 -6.140625 L 11.375 -6.421875 L 12.03125 -6.78125 L 12.671875 -7.140625 L 13.796875 -7.671875 L 15.28125 -8.375 L 16.578125 -9.015625 L 17.75 -9.671875 L 18.8125 -10.265625 L 19.640625 -10.734375 L 18.9375 -9.203125 L 18.34375 -8.140625 L 18.109375 -7.671875 L 17.578125 -7.3125 L 16.28125 -6.609375 L 15.03125 -5.953125 L 13.6875 -5.1875 L 12.03125 -4.3125 L 10.5625 -3.53125 Z M 8.734375 -2.59375 "/></g></g></g><g fill="#092f62" fill-opacity="1"><g transform="translate(340.459802, 75.245345)"><g/></g></g><g fill="#092f62" fill-opacity="1"><g transform="translate(349.117468, 75.245345)"><g><path d="M 5.78125 -6.546875 L 4.84375 -5.25 L 4.1875 -4.125 L 3.78125 -3.125 L 3.484375 -2.234375 L 3.484375 -1.421875 L 4.1875 -1.0625 L 5.125 -1.171875 L 6.078125 -1.59375 L 6.90625 -2.296875 L 7.71875 -3 L 8.203125 -3.421875 L 8.203125 -4.0625 L 7.609375 -4.78125 L 6.84375 -5.546875 Z M 10.4375 -15.8125 L 10.5 -13.984375 L 10.265625 -13.03125 L 9.546875 -11.90625 L 8.78125 -10.796875 L 7.84375 -9.546875 L 7.015625 -8.546875 L 7.96875 -7.609375 L 8.5 -6.78125 L 9.015625 -4.890625 L 8.96875 -3 L 8.546875 -1.296875 L 7.671875 -0.125 L 6.484375 0.9375 L 5.421875 1.703125 L 4.59375 2 L 3.65625 2 L 2.765625 1.421875 L 2.484375 0.359375 L 2.484375 -1.421875 L 2.71875 -3.0625 L 3 -4.0625 L 3.59375 -5.359375 L 4.3125 -6.609375 L 4.71875 -7.375 L 3.65625 -8.3125 L 2.53125 -9.546875 L 1.703125 -10.84375 L 1.46875 -11.796875 L 0.9375 -11.859375 L 0.9375 -14.859375 L 3.296875 -13.328125 L 4.84375 -12.328125 L 3.296875 -12.09375 L 4.484375 -10.90625 L 5.421875 -10.078125 L 6.015625 -9.609375 L 6.953125 -10.796875 L 7.78125 -11.859375 L 8.546875 -12.921875 L 9.140625 -13.796875 L 9.734375 -14.6875 Z M 10.265625 -24.46875 L 9.3125 -21.34375 L 5.421875 -23.359375 L 6.375 -26.59375 Z M 5.65625 -22.765625 L 4.71875 -19.640625 L 0.828125 -21.640625 L 1.765625 -24.890625 Z M 5.65625 -22.765625 "/></g></g></g><g fill="#092f62" fill-opacity="1"><g transform="translate(360.428492, 75.245345)"><g><path d="M 19.9375 -2.765625 L 19.171875 -3.59375 L 18.453125 -4.1875 L 17.6875 -4.25 L 16.8125 -4.015625 L 16.390625 -3.421875 L 16.578125 -3 L 17.046875 -2.765625 Z M 14.625 -1.46875 L 14.625 -3.953125 L 14.796875 -4.65625 L 15.15625 -5.359375 L 15.625 -5.953125 L 16.28125 -6.671875 L 17.109375 -7.140625 L 18.046875 -7.3125 L 19.21875 -7.140625 L 20.109375 -6.546875 L 20.9375 -5.78125 L 21.875 -4.78125 L 22.640625 -3.71875 L 23 -2.765625 L 25.484375 -2.765625 L 25.484375 0 L 23.890625 0 L 23.890625 1.0625 L 23.65625 2.828125 L 23.234375 4.65625 L 22.109375 6.1875 L 21 7.3125 L 19.703125 8.609375 L 18.171875 9.734375 L 16.625 10.96875 L 15.390625 11.859375 L 13.984375 12.734375 L 12.328125 13.5625 L 10.671875 14.328125 L 9.265625 14.859375 L 7.84375 15.15625 L 6.1875 15.328125 L 4.65625 15.328125 L 3.1875 15.21875 L 2.1875 14.796875 L 1.296875 14.328125 L 0.125 13.265625 L -1.0625 11.796875 L -1.953125 9.96875 L -2.234375 8.3125 L -2.296875 7.546875 L -2.421875 6.421875 L -2.421875 5.546875 L -2.234375 3.25 L -2 1.59375 L -1.59375 0.234375 L -1.125 -0.46875 L -0.65625 -0.40625 L -1 0.171875 L -1.359375 1.359375 L -1.59375 2.828125 L -1.703125 3.890625 L -1.703125 6.421875 L -1.46875 7.546875 L -0.828125 8.78125 L 0.0625 9.96875 L 0.828125 10.671875 L 1.828125 11.328125 L 3.0625 11.796875 L 3.953125 12.09375 L 4.71875 12.203125 L 6.671875 12.203125 L 7.78125 12.03125 L 9.265625 11.5625 L 11.328125 10.734375 L 13.15625 9.90625 L 14.6875 9.015625 L 16.21875 8.015625 L 17.515625 7.140625 L 19.640625 5.484375 L 21.109375 4.25 L 22.765625 2.53125 L 22.765625 1.46875 L 22.59375 0.59375 L 22.234375 0.0625 L 17.109375 0.0625 L 15.984375 -0.125 L 15.03125 -0.59375 Z M 14.625 -1.46875 "/></g></g></g><g fill="#092f62" fill-opacity="1"><g transform="translate(385.477963, 75.245345)"><g><path d="M 8.734375 -2.59375 L 7.609375 -2 L 6.546875 -1.53125 L 5.609375 -1.171875 L 4.546875 -0.765625 L 3.421875 -0.40625 L 2.1875 -0.125 L 0.65625 0 L 0 0 L 0 -3.1875 L 1.65625 -3.1875 L 3.59375 -3.296875 L 4.953125 -3.59375 L 5.78125 -3.828125 L 6.375 -4.125 L 4.890625 -5.1875 L 3.78125 -6.1875 L 3.0625 -6.953125 L 2.296875 -8.015625 L 1.765625 -9.265625 L 1.59375 -10.203125 L 1.59375 -11.140625 L 1.828125 -12.5 L 2.1875 -13.390625 L 2.65625 -14.328125 L 3.296875 -15.15625 L 4.359375 -16.15625 L 5.3125 -16.625 L 6.25 -16.921875 L 7.1875 -17.046875 L 8.84375 -17.046875 L 9.796875 -16.984375 L 10.96875 -16.625 L 12.328125 -16.046875 L 13.203125 -15.390625 L 13.734375 -14.921875 L 13.734375 -14.515625 L 12.859375 -14.515625 L 12.15625 -14.75 L 11.328125 -14.859375 L 9.078125 -14.859375 L 7.84375 -14.6875 L 6.421875 -14.453125 L 5.1875 -14.09375 L 4.0625 -13.625 L 3.125 -12.96875 L 2.828125 -12.5625 L 2.828125 -11.4375 L 3.1875 -10.734375 L 3.828125 -9.90625 L 4.65625 -9.015625 L 5.546875 -8.203125 L 6.671875 -7.4375 L 7.84375 -6.84375 L 8.78125 -6.421875 L 9.796875 -6.140625 L 10.609375 -6.140625 L 11.375 -6.421875 L 12.03125 -6.78125 L 12.671875 -7.140625 L 13.796875 -7.671875 L 15.28125 -8.375 L 16.578125 -9.015625 L 17.75 -9.671875 L 18.8125 -10.265625 L 19.640625 -10.734375 L 18.9375 -9.203125 L 18.34375 -8.140625 L 18.109375 -7.671875 L 17.578125 -7.3125 L 16.28125 -6.609375 L 15.03125 -5.953125 L 13.6875 -5.1875 L 12.03125 -4.3125 L 10.5625 -3.53125 Z M 8.734375 -2.59375 "/></g></g></g><g fill="#092f62" fill-opacity="1"><g transform="translate(405.338661, 75.245345)"><g><path d="M 7.3125 -19.75 L 10.734375 -17.875 L 8.84375 -17.75 L 9.3125 -17.21875 L 10.140625 -16.515625 L 11.671875 -15.5625 L 13.5625 -14.625 L 15.21875 -13.796875 L 17.34375 -12.625 L 18.40625 -11.4375 L 18.984375 -9.671875 L 19.109375 -7.484375 L 18.75 -6.375 L 18.171875 -4.953125 L 14.984375 -2.59375 L 12.390625 -0.765625 L 10.265625 0.65625 L 8.609375 1.765625 L 6.484375 3.0625 L 4.953125 3.65625 L 3.890625 3.890625 L 2.828125 3.890625 L 1.703125 3.296875 L 0.9375 1.890625 L 0.59375 0.703125 L 0.59375 -1.46875 L 1.0625 -3.953125 L 2.125 -7.140625 L 2.53125 -6.71875 L 2.0625 -5.3125 L 1.765625 -3.71875 L 1.703125 -2.234375 L 1.703125 -0.53125 L 2.421875 0.40625 L 3.359375 1.0625 L 3.828125 1.0625 L 4.84375 0.703125 L 6.609375 -0.171875 L 8.734375 -1.359375 L 10.609375 -2.53125 L 12.859375 -3.953125 L 15.09375 -5.484375 L 17.578125 -7.25 L 18.109375 -7.78125 L 17.453125 -9.015625 L 13.921875 -11.09375 L 11.796875 -12.15625 L 9.90625 -13.390625 L 8.5 -14.625 L 7.3125 -15.921875 L 6.71875 -16.578125 L 6.484375 -17.109375 L 5.890625 -17.109375 L 6.140625 -19.28125 L 6.25 -20.578125 Z M 7.3125 -19.75 "/></g></g></g></svg>