<svg xmlns="http://www.w3.org/2000/svg" xmlns:xlink="http://www.w3.org/1999/xlink" width="1135" zoomAndPan="magnify" viewBox="0 0 851.25 299.25" height="399" preserveAspectRatio="xMidYMid meet" version="1.0"><defs><g/></defs><g fill="#092f62" fill-opacity="1"><g transform="translate(52.746452, 102.597101)"><g><path d="M 16.171875 -31.3125 L 20.4375 -29.140625 L 19.3125 -24.703125 L 15.21875 -26.890625 Z M 33.15625 -12.234375 L 32.515625 -13.765625 L 33.484375 -17.78125 L 37.34375 -13.4375 L 35.421875 -13.84375 L 36.0625 -12.5625 L 37.1875 -10.0625 L 38.3125 -6.921875 L 38.640625 -4.828125 L 38.640625 -2.734375 L 38.15625 -0.640625 L 37.1875 1.203125 L 36.0625 2.578125 L 33.15625 5.640625 L 31.546875 6.84375 L 30.421875 7.640625 L 28.96875 8.6875 L 27.203125 9.8125 L 25.4375 10.859375 L 23.5 11.90625 L 21.890625 12.640625 L 19.96875 13.4375 L 18.359375 14 L 16.90625 14.40625 L 14.96875 14.734375 L 13.359375 15.046875 L 8.859375 15.046875 L 7.25 14.65625 L 5.640625 13.921875 L 3.859375 12.640625 L 2.734375 11.1875 L 1.609375 9.171875 L 0.640625 6.59375 L 0.328125 4.109375 L 0 1.9375 L 0 -1.203125 L 0.234375 -3.140625 L 1.046875 -6.359375 L 1.6875 -5.546875 L 1.203125 -3.859375 L 0.96875 -1.375 L 0.96875 1.609375 L 1.453125 3.78125 L 2.09375 5.3125 L 3.21875 7.15625 L 4.828125 8.609375 L 6.28125 9.578125 L 8.046875 10.296875 L 9.34375 10.703125 L 13.84375 10.703125 L 15.125 10.46875 L 17.0625 9.90625 L 19 9.25 L 20.921875 8.453125 L 22.859375 7.640625 L 25.28125 6.4375 L 27.203125 5.46875 L 28.8125 4.5 L 30.265625 3.625 L 31.875 2.5 L 33.640625 1.203125 L 35.421875 -0.328125 L 37.03125 -2.09375 L 37.03125 -3.21875 L 36.21875 -4.984375 L 34.453125 -9.09375 Z M 33.15625 -12.234375 "/></g></g></g><g fill="#092f62" fill-opacity="1"><g transform="translate(92.495225, 102.597101)"><g><path d="M 2.21875 -48.375 L 6.96875 -38.390625 L 4.21875 -40.078125 L 7.453125 -13.84375 L 7.453125 -4.03125 L 6.3125 -0.40625 L 5.828125 -0.40625 L 5.828125 -6.125 L 5.1875 -11.90625 L 1.65625 -42.5 L 1 -44.03125 Z M 2.21875 -48.375 "/></g></g></g><g fill="#092f62" fill-opacity="1"><g transform="translate(101.134402, 102.597101)"><g><path d="M 22.625 -6.765625 L 23.75 -7.078125 L 25.359375 -7.484375 L 27.6875 -7.484375 L 28.734375 -7.328125 L 29.9375 -7 L 31.15625 -6.03125 L 32.03125 -5.078125 L 33.484375 -4.421875 L 34.28125 -4.421875 L 34.28125 0 L 32.765625 0 L 31.546875 -0.328125 L 30.5 -1.046875 L 29.78125 -1.84375 L 28.5 -2.890625 L 27.453125 -3.21875 L 25.109375 -3.21875 L 23.578125 -2.984375 L 22.21875 -2.5 L 20.84375 -1.765625 L 19 -0.484375 L 17.625 0.640625 L 16.171875 2.015625 L 14.890625 3.140625 L 13.6875 4.265625 L 12 5.796875 L 10.21875 7.5625 L 8.859375 8.9375 L 7.640625 10.21875 L 5.875 11.75 L 4.421875 12.796875 L 2.65625 13.84375 L 0.890625 14.25 L -0.96875 14.078125 L -2.421875 13.4375 L -3.625 12.390625 L -4.5 11.109375 L -5.234375 8.6875 L -5.234375 6.4375 L -4.90625 4.1875 L -4.34375 1.9375 L -3.78125 0.484375 L -2.8125 -1.53125 L -1.9375 -3.0625 L -0.8125 -4.828125 L -0.078125 -3.9375 L -1.203125 -1.609375 L -2.015625 0 L -2.65625 1.453125 L -2.984375 2.65625 L -3.46875 4.265625 L -3.703125 5.46875 L -3.703125 8.53125 L -3.296875 9.65625 L -2.421875 10.625 L -1.125 10.859375 L 0.328125 10.625 L 1.453125 10.140625 L 2.578125 9.578125 L 3.859375 8.765625 L 4.90625 8.046875 L 5.875 7.40625 L 7.078125 6.28125 L 8.125 5.3125 L 13.921875 -0.484375 L 16.171875 -2.578125 L 17.46875 -3.703125 L 18.828125 -4.75 L 20.125 -5.546875 L 21.25 -6.203125 Z M 22.625 -6.765625 "/></g></g></g><g fill="#092f62" fill-opacity="1"><g transform="translate(134.84638, 102.597101)"><g><path d="M 7.890625 -24.796875 L 6.59375 -20.53125 L 1.28125 -23.265625 L 2.578125 -27.6875 Z M 13.359375 -28.015625 L 12.078125 -23.75 L 6.921875 -26.484375 L 8.203125 -30.90625 Z M 8.859375 -6.84375 L 10.140625 -7.640625 L 11.109375 -8.53125 L 11.90625 -9.578125 L 11.90625 -10.625 L 11.59375 -11.34375 L 11.109375 -12.234375 L 10.390625 -12.875 L 9.34375 -12.875 L 8.53125 -12.15625 L 7.734375 -11.1875 L 7.078125 -10.21875 L 7 -9.25 L 7.5625 -8.203125 L 8.296875 -7.328125 Z M 16.578125 -4.34375 L 16.578125 0 L 15.296875 0 L 13.515625 -0.15625 L 11.75 -0.5625 L 10.21875 -1.203125 L 8.9375 -2.09375 L 8.125 -2.890625 L 6.59375 -1.765625 L 5.15625 -0.96875 L 3.21875 -0.234375 L 1.453125 0 L 0 0 L 0 -4.34375 L 2.328125 -4.34375 L 4.1875 -4.5 L 5.640625 -4.90625 L 6.28125 -5.640625 L 6.03125 -6.4375 L 5.796875 -7.40625 L 5.796875 -10.0625 L 6.28125 -12.3125 L 7.078125 -14.078125 L 7.890625 -15.296875 L 8.765625 -16.171875 L 9.984375 -16.828125 L 11.34375 -16.734375 L 12.3125 -15.78125 L 12.796875 -14.8125 L 13.203125 -13.203125 L 13.28125 -10.625 L 13.125 -8.453125 L 12.5625 -7 L 12 -6.125 L 11.265625 -5.390625 L 12.640625 -4.5 L 14.171875 -4.34375 Z M 16.578125 -4.34375 "/></g></g></g><g fill="#092f62" fill-opacity="1"><g transform="translate(150.85044, 102.597101)"><g><path d="M 3.46875 -49.171875 L 8.203125 -39.203125 L 5.46875 -40.890625 L 8.6875 -14.65625 L 8.6875 -7.25 L 8.203125 -4.828125 L 6.921875 -2.890625 L 5.640625 -1.53125 L 4.671875 -0.890625 L 3.0625 -0.328125 L 1.453125 0 L 0 0 L 0 -4.421875 L 3.546875 -4.421875 L 4.984375 -4.828125 L 6.28125 -5.796875 L 6.921875 -7.25 L 6.4375 -12.71875 L 2.890625 -43.296875 L 2.25 -44.828125 Z M 3.46875 -49.171875 "/></g></g></g><g fill="#092f62" fill-opacity="1"><g transform="translate(160.898199, 102.597101)"><g><path d="M 2.21875 -48.375 L 6.96875 -38.390625 L 4.21875 -40.078125 L 7.453125 -13.84375 L 7.453125 -4.03125 L 6.3125 -0.40625 L 5.828125 -0.40625 L 5.828125 -6.125 L 5.1875 -11.90625 L 1.65625 -42.5 L 1 -44.03125 Z M 2.21875 -48.375 "/></g></g></g><g fill="#092f62" fill-opacity="1"><g transform="translate(169.537378, 102.597101)"><g/></g></g><g fill="#092f62" fill-opacity="1"><g transform="translate(181.355929, 102.597101)"><g><path d="M 34.203125 -4.421875 L 34.203125 0 L 33.328125 0 L 31.15625 -0.234375 L 29.0625 -1.375 L 27.6875 -2.734375 L 26.71875 -4.265625 L 25.84375 -6.359375 L 25.1875 -8.203125 L 24.796875 -9.8125 L 24.390625 -12.078125 L 23.828125 -10.46875 L 22.78125 -8.53125 L 21.40625 -6.921875 L 20.203125 -5.640625 L 18.75 -4.265625 L 17.546875 -3.296875 L 16.265625 -2.328125 L 14.96875 -1.375 L 13.125 -0.15625 L 10.78125 1.125 L 9.171875 1.84375 L 7.328125 2.578125 L 5.390625 2.890625 L 3.46875 2.890625 L 2.09375 2.421875 L 1.125 1.375 L 0.40625 0.15625 L -0.078125 -2.09375 L -0.078125 -5.234375 L 0.234375 -7.484375 L 0.96875 -9.90625 L 1.9375 -12.15625 L 2.890625 -14.078125 L 3.9375 -16.015625 L 5.078125 -17.625 L 5.15625 -16.734375 L 3.703125 -13.921875 L 2.328125 -10.625 L 1.53125 -8.453125 L 1.28125 -6.84375 L 1.28125 -3.703125 L 2.015625 -2.421875 L 2.984375 -1.765625 L 4.109375 -1.453125 L 6.359375 -1.453125 L 7.5625 -1.84375 L 9.25 -2.578125 L 11.59375 -3.78125 L 13.203125 -4.671875 L 14.734375 -5.71875 L 16.09375 -6.765625 L 17.703125 -7.96875 L 18.921875 -9.015625 L 21.328125 -11.421875 L 21.890625 -12.234375 L 22.78125 -13.515625 L 23.34375 -14.484375 L 23.671875 -15.453125 L 23.5 -16.90625 L 22.9375 -18.828125 L 22.046875 -21.25 L 21.40625 -23.34375 L 20.53125 -25.84375 L 19.71875 -28.015625 L 19.15625 -29.703125 L 18.359375 -31.546875 L 19.078125 -36.375 L 20.53125 -34.375 L 21.65625 -31.625 L 22.78125 -28.734375 L 23.75 -25.84375 L 24.546875 -23.09375 L 25.359375 -20.359375 L 26 -17.546875 L 26.796875 -12.796875 L 27.359375 -10.21875 L 28.09375 -8.203125 L 28.890625 -6.84375 L 29.9375 -5.71875 L 30.75 -5.15625 L 31.796875 -4.671875 L 33.078125 -4.421875 Z M 34.203125 -4.421875 "/></g></g></g><g fill="#092f62" fill-opacity="1"><g transform="translate(214.987423, 102.597101)"><g><path d="M 7.890625 -24.796875 L 6.59375 -20.53125 L 1.28125 -23.265625 L 2.578125 -27.6875 Z M 13.359375 -28.015625 L 12.078125 -23.75 L 6.921875 -26.484375 L 8.203125 -30.90625 Z M 8.859375 -6.84375 L 10.140625 -7.640625 L 11.109375 -8.53125 L 11.90625 -9.578125 L 11.90625 -10.625 L 11.59375 -11.34375 L 11.109375 -12.234375 L 10.390625 -12.875 L 9.34375 -12.875 L 8.53125 -12.15625 L 7.734375 -11.1875 L 7.078125 -10.21875 L 7 -9.25 L 7.5625 -8.203125 L 8.296875 -7.328125 Z M 16.578125 -4.34375 L 16.578125 0 L 15.296875 0 L 13.515625 -0.15625 L 11.75 -0.5625 L 10.21875 -1.203125 L 8.9375 -2.09375 L 8.125 -2.890625 L 6.59375 -1.765625 L 5.15625 -0.96875 L 3.21875 -0.234375 L 1.453125 0 L 0 0 L 0 -4.34375 L 2.328125 -4.34375 L 4.1875 -4.5 L 5.640625 -4.90625 L 6.28125 -5.640625 L 6.03125 -6.4375 L 5.796875 -7.40625 L 5.796875 -10.0625 L 6.28125 -12.3125 L 7.078125 -14.078125 L 7.890625 -15.296875 L 8.765625 -16.171875 L 9.984375 -16.828125 L 11.34375 -16.734375 L 12.3125 -15.78125 L 12.796875 -14.8125 L 13.203125 -13.203125 L 13.28125 -10.625 L 13.125 -8.453125 L 12.5625 -7 L 12 -6.125 L 11.265625 -5.390625 L 12.640625 -4.5 L 14.171875 -4.34375 Z M 16.578125 -4.34375 "/></g></g></g><g fill="#092f62" fill-opacity="1"><g transform="translate(230.991483, 102.597101)"><g><path d="M 11.90625 -3.546875 L 10.390625 -2.734375 L 8.9375 -2.09375 L 7.640625 -1.609375 L 6.203125 -1.046875 L 4.671875 -0.5625 L 2.984375 -0.15625 L 0.890625 0 L 0 0 L 0 -4.34375 L 2.25 -4.34375 L 4.90625 -4.5 L 6.765625 -4.90625 L 7.890625 -5.234375 L 8.6875 -5.640625 L 6.6875 -7.078125 L 5.15625 -8.453125 L 4.1875 -9.5 L 3.140625 -10.953125 L 2.421875 -12.640625 L 2.171875 -13.921875 L 2.171875 -15.21875 L 2.5 -17.0625 L 2.984375 -18.265625 L 3.625 -19.5625 L 4.5 -20.6875 L 5.953125 -22.046875 L 7.25 -22.703125 L 8.53125 -23.09375 L 9.8125 -23.265625 L 12.078125 -23.265625 L 13.359375 -23.1875 L 14.96875 -22.703125 L 16.828125 -21.890625 L 18.03125 -21.015625 L 18.75 -20.359375 L 18.75 -19.796875 L 17.546875 -19.796875 L 16.578125 -20.125 L 15.453125 -20.28125 L 12.390625 -20.28125 L 10.703125 -20.046875 L 8.765625 -19.71875 L 7.078125 -19.234375 L 5.546875 -18.59375 L 4.265625 -17.703125 L 3.859375 -17.140625 L 3.859375 -15.609375 L 4.34375 -14.65625 L 5.234375 -13.515625 L 6.359375 -12.3125 L 7.5625 -11.1875 L 9.09375 -10.140625 L 10.703125 -9.34375 L 12 -8.765625 L 13.359375 -8.375 L 14.484375 -8.375 L 15.53125 -8.765625 L 17.3125 -9.734375 L 18.828125 -10.46875 L 20.84375 -11.421875 L 22.625 -12.3125 L 24.234375 -13.203125 L 25.671875 -14 L 26.796875 -14.65625 L 25.84375 -12.5625 L 25.03125 -11.109375 L 24.703125 -10.46875 L 23.984375 -9.984375 L 22.21875 -9.015625 L 20.53125 -8.125 L 18.671875 -7.078125 L 16.421875 -5.875 L 14.40625 -4.828125 Z M 11.90625 -3.546875 "/></g></g></g><g fill="#092f62" fill-opacity="1"><g transform="translate(258.10323, 102.597101)"><g/></g></g><g fill="#092f62" fill-opacity="1"><g transform="translate(269.921769, 102.597101)"><g><path d="M 22.703125 -6.359375 L 23.828125 -6.6875 L 25.4375 -7.078125 L 27.765625 -7.078125 L 28.8125 -6.921875 L 30.015625 -6.59375 L 31.234375 -5.640625 L 31.875 -4.1875 L 31.875 -2.734375 L 31.46875 -1.046875 L 30.984375 -0.15625 L 30.59375 -0.640625 L 29.859375 -1.453125 L 28.578125 -2.5 L 27.53125 -2.8125 L 25.1875 -2.8125 L 23.671875 -2.578125 L 22.296875 -2.09375 L 20.921875 -1.375 L 19.078125 -0.078125 L 17.703125 1.046875 L 16.265625 2.421875 L 14.96875 3.546875 L 13.765625 4.671875 L 12.078125 6.203125 L 10.296875 7.96875 L 8.9375 9.34375 L 7.734375 10.625 L 5.953125 12.15625 L 4.5 13.203125 L 2.734375 14.25 L 0.96875 14.65625 L -0.890625 14.484375 L -2.328125 13.84375 L -3.546875 12.796875 L -4.421875 11.515625 L -5.15625 9.09375 L -5.15625 6.59375 L -4.828125 4.59375 L -4.265625 2.328125 L -3.703125 0.890625 L -2.734375 -1.125 L -1.84375 -2.65625 L -0.71875 -4.421875 L 0 -3.546875 L -1.125 -1.203125 L -1.9375 0.40625 L -2.578125 1.84375 L -2.890625 3.0625 L -3.375 4.671875 L -3.625 5.875 L -3.625 8.9375 L -3.21875 10.0625 L -2.328125 11.03125 L -1.046875 11.265625 L 0.40625 11.03125 L 1.53125 10.546875 L 2.65625 9.984375 L 3.9375 9.171875 L 4.984375 8.453125 L 5.953125 7.8125 L 7.15625 6.6875 L 8.203125 5.71875 L 14 -0.078125 L 15.125 -1.125 L 16.265625 -2.171875 L 17.546875 -3.296875 L 18.921875 -4.34375 L 20.203125 -5.15625 L 21.328125 -5.796875 Z M 22.703125 -6.359375 "/></g></g></g><g fill="#092f62" fill-opacity="1"><g transform="translate(302.265414, 102.597101)"><g><path d="M 27.203125 -3.78125 L 26.15625 -4.90625 L 25.1875 -5.71875 L 24.140625 -5.796875 L 22.9375 -5.46875 L 22.375 -4.671875 L 22.625 -4.109375 L 23.265625 -3.78125 Z M 19.96875 -2.015625 L 19.96875 -5.390625 L 20.203125 -6.359375 L 20.6875 -7.328125 L 21.328125 -8.125 L 22.21875 -9.09375 L 23.34375 -9.734375 L 24.625 -9.984375 L 26.234375 -9.734375 L 27.453125 -8.9375 L 28.578125 -7.890625 L 29.859375 -6.515625 L 30.90625 -5.078125 L 31.390625 -3.78125 L 34.765625 -3.78125 L 34.765625 0 L 32.59375 0 L 32.59375 1.453125 L 32.28125 3.859375 L 31.71875 6.359375 L 30.1875 8.453125 L 26.890625 11.75 L 24.796875 13.28125 L 22.703125 14.96875 L 21.015625 16.171875 L 19.078125 17.390625 L 16.828125 18.515625 L 14.5625 19.5625 L 12.640625 20.28125 L 10.703125 20.6875 L 8.453125 20.921875 L 6.359375 20.921875 L 4.34375 20.765625 L 2.984375 20.203125 L 1.765625 19.5625 L 0.15625 18.109375 L -1.453125 16.09375 L -2.65625 13.609375 L -3.0625 11.34375 L -3.140625 10.296875 L -3.296875 8.765625 L -3.296875 7.5625 L -3.0625 4.421875 L -2.734375 2.171875 L -2.171875 0.328125 L -1.53125 -0.640625 L -0.890625 -0.5625 L -1.375 0.234375 L -1.84375 1.84375 L -2.171875 3.859375 L -2.328125 5.3125 L -2.328125 8.765625 L -2.015625 10.296875 L -1.125 12 L 0.078125 13.609375 L 1.125 14.5625 L 2.5 15.453125 L 4.1875 16.09375 L 5.390625 16.5 L 6.4375 16.65625 L 9.09375 16.65625 L 10.625 16.421875 L 12.640625 15.78125 L 15.453125 14.65625 L 17.953125 13.515625 L 20.046875 12.3125 L 22.140625 10.953125 L 23.90625 9.734375 L 25.359375 8.609375 L 26.796875 7.484375 L 28.8125 5.796875 L 31.0625 3.46875 L 31.0625 2.015625 L 30.828125 0.8125 L 30.34375 0.078125 L 23.34375 0.078125 L 21.8125 -0.15625 L 20.53125 -0.8125 Z M 19.96875 -2.015625 "/></g></g></g><g fill="#092f62" fill-opacity="1"><g transform="translate(336.46033, 102.597101)"><g><path d="M 13.609375 -30.90625 L 17.953125 -28.734375 L 16.828125 -24.3125 L 12.640625 -26.484375 Z M 14.25 -6.28125 L 15.453125 -5.71875 L 19.15625 -5.71875 L 20.765625 -6.03125 L 23.265625 -6.6875 L 25.109375 -7.25 L 27.125 -7.96875 L 28.578125 -8.609375 L 30.421875 -9.578125 L 32.03125 -10.625 L 32.203125 -11.421875 L 30.671875 -13.046875 L 29.296875 -14.328125 L 27.453125 -15.609375 L 25.03125 -16.015625 L 23.09375 -15.703125 L 21.40625 -14.890625 L 19.5625 -13.4375 L 18.59375 -12.3125 L 17.140625 -10.21875 L 15.859375 -8.53125 Z M 5.640625 -1.84375 L 5.078125 -1.375 L 2.984375 -0.40625 L 1.453125 0 L 0 0 L 0 -4.421875 L 2.328125 -4.421875 L 4.03125 -4.671875 L 5.546875 -5.390625 L 6.6875 -6.4375 L 8.125 -8.375 L 10.21875 -11.515625 L 10.546875 -8.6875 L 11.34375 -7.5625 L 12.3125 -6.84375 L 13.515625 -9.09375 L 14.484375 -10.703125 L 15.53125 -12.5625 L 16.90625 -14.65625 L 18.1875 -16.34375 L 19.640625 -17.703125 L 20.921875 -18.75 L 22.859375 -19.875 L 24.953125 -20.28125 L 26.71875 -20.28125 C 26.851562 -20.257812 27.109375 -20.191406 27.484375 -20.078125 C 27.859375 -19.972656 28.113281 -19.90625 28.25 -19.875 C 28.382812 -19.851562 28.570312 -19.851562 28.8125 -19.875 L 30.90625 -18.671875 L 32.515625 -17.21875 L 33.8125 -15.453125 L 34.125 -13.203125 L 33.96875 -10.390625 L 32.765625 -7.96875 L 31.234375 -6.4375 L 27.28125 -4.5 L 35.5 -4.5 L 35.5 0 L 24.0625 0 L 21.328125 -0.328125 L 19.5625 -0.640625 L 17.953125 -0.96875 L 15.453125 -1.453125 L 13.203125 -1.84375 L 12 -2.421875 L 11.59375 -1.375 L 10.859375 0.8125 L 10.78125 -1.765625 L 11.03125 -3.0625 L 10.21875 -3.78125 L 9.578125 -5.078125 L 9.09375 -6.03125 L 8.296875 -4.90625 L 7.484375 -3.78125 L 6.515625 -2.578125 Z M 5.640625 -1.84375 "/></g></g></g><g fill="#092f62" fill-opacity="1"><g transform="translate(371.379672, 102.597101)"><g><path d="M 2.015625 -10.546875 L 2.015625 -11.421875 L 2.578125 -12.875 L 3.78125 -14.171875 L 5.46875 -14.96875 L 7.5625 -15.296875 L 9.34375 -15.125 L 11.671875 -14.40625 L 14.96875 -13.28125 L 19.640625 -11.90625 L 25.109375 -10.953125 L 28.5 -10.46875 L 31.46875 -10.140625 L 30.34375 -6.125 L 29.375 -6.28125 L 28.328125 -6.4375 L 27.609375 -6.03125 L 27.6875 -4.984375 L 28.328125 -4.421875 L 29.453125 -4.34375 L 32.671875 -4.34375 L 32.671875 0 L 30.75 0 L 29.296875 -0.078125 L 27.765625 -0.40625 L 26.796875 -1.203125 L 26.40625 -2.984375 L 26.5625 -4.90625 L 26.890625 -6.515625 L 24.953125 -6.4375 L 22.703125 -6.203125 L 20.6875 -5.640625 L 15.453125 -4.03125 L 13.203125 -3.21875 L 10.546875 -2.328125 L 8.453125 -1.53125 L 6.6875 -0.96875 L 3.703125 -0.234375 L 0.8125 0 L 0 0 L 0 -4.34375 L 2.015625 -4.34375 L 4.34375 -4.59375 L 8.53125 -5.46875 L 11.59375 -6.4375 L 14 -7.25 L 15.9375 -7.890625 L 17.140625 -8.046875 L 16.421875 -8.375 L 15.046875 -8.765625 L 13.4375 -9.171875 L 11.671875 -9.8125 L 10.390625 -10.21875 L 9.421875 -10.546875 L 8.765625 -10.21875 L 8.6875 -9.65625 L 5.546875 -10.0625 Z M 2.015625 -10.546875 "/></g></g></g><g fill="#092f62" fill-opacity="1"><g transform="translate(403.481834, 102.597101)"><g><path d="M 3.46875 -49.171875 L 8.203125 -39.203125 L 5.46875 -40.890625 L 8.6875 -14.65625 L 8.6875 -7.25 L 8.203125 -4.828125 L 6.921875 -2.890625 L 5.640625 -1.53125 L 4.671875 -0.890625 L 3.0625 -0.328125 L 1.453125 0 L 0 0 L 0 -4.421875 L 3.546875 -4.421875 L 4.984375 -4.828125 L 6.28125 -5.796875 L 6.921875 -7.25 L 6.4375 -12.71875 L 2.890625 -43.296875 L 2.25 -44.828125 Z M 3.46875 -49.171875 "/></g></g></g><g fill="#092f62" fill-opacity="1"><g transform="translate(413.529581, 102.597101)"><g/></g></g><g fill="#092f62" fill-opacity="1"><g transform="translate(425.34812, 102.597101)"><g><path d="M 43.703125 -4.265625 L 43.703125 0 L 40.890625 0 L 41.21875 1.609375 L 41.21875 3.625 L 40.734375 4.75 L 40 5.953125 L 39.4375 6.59375 L 38.078125 7.328125 L 36.859375 7.328125 L 35.09375 6.6875 L 33.71875 5.46875 L 32.671875 4.265625 L 32.03125 3.140625 L 31.46875 1.765625 L 31.0625 0.5625 L 30.671875 -1.125 L 30.109375 -0.078125 L 29.453125 1.203125 L 28.578125 2.890625 L 27.609375 4.5 L 26.234375 6.4375 L 25.109375 7.640625 L 23.984375 8.609375 L 20.609375 11.03125 L 18.109375 12.5625 L 14.8125 14.40625 L 12.078125 15.859375 L 9.734375 17.0625 L 7.40625 18.1875 L 5.234375 18.828125 L 2.734375 19.484375 L 0.078125 20.125 L -1.765625 20.53125 L -3.859375 21.015625 L -6.59375 21.40625 L -7.25 21.484375 L -4.109375 19.5625 L -0.40625 17.625 L 3.703125 15.609375 L 6.765625 14.25 L 10.703125 12.390625 L 13.609375 10.859375 L 16.90625 9.015625 L 19.5625 7.484375 L 22.296875 5.71875 L 24.46875 4.265625 L 25.75 3.21875 L 26.796875 2.09375 L 27.609375 0.890625 L 28.40625 -0.40625 L 29.0625 -1.453125 L 29.625 -2.578125 L 30.34375 -3.9375 L 30.828125 -4.671875 L 31.390625 -5.390625 L 32.4375 -5.3125 L 32.84375 -6.6875 L 33 -7.5625 L 33.96875 -7 L 35.328125 -6.203125 L 36.546875 -5.46875 L 37.828125 -4.75 L 38.640625 -4.265625 Z M 43.703125 -4.265625 "/></g></g></g><g fill="#092f62" fill-opacity="1"><g transform="translate(468.477478, 102.597101)"><g><path d="M 17.21875 -6.515625 L 16.5 -5.546875 L 15.125 -4.34375 L 13.515625 -3.21875 L 12.078125 -2.328125 L 10.46875 -1.453125 L 8.765625 -0.71875 L 7.328125 -0.234375 L 5.546875 0 L 0 0 L 0 -4.34375 L 6.6875 -4.34375 L 8.453125 -4.75 L 10.296875 -5.46875 L 11.90625 -6.359375 L 13.359375 -7.25 L 14.8125 -8.046875 L 16.34375 -9.015625 L 17.46875 -9.984375 L 17.953125 -10.46875 L 17.953125 -11.515625 L 17.0625 -12.234375 L 15.125 -13.921875 L 13.203125 -15.53125 L 10.953125 -17.3125 L 9.171875 -18.671875 L 7.40625 -20.125 L 5.46875 -21.65625 L 3.9375 -22.9375 L 2.25 -24.3125 L 0.71875 -25.59375 L -0.8125 -26.96875 L -2.25 -28.65625 L -2.65625 -29.625 L -3.21875 -30.015625 L -3.21875 -33.484375 L -2.8125 -34.859375 L -2.25 -36.375 L -1.375 -37.671875 L 0.484375 -39.03125 L 2.328125 -40.171875 L 4.34375 -41.375 L 7.484375 -42.90625 L 9.421875 -43.859375 L 12 -45 L 14 -46.046875 L 16.421875 -47 L 19 -48.046875 L 21.484375 -49.09375 L 24.390625 -50.0625 L 27.125 -51.03125 L 29.703125 -51.75 L 32.671875 -52.5625 L 35.421875 -53.203125 L 37.984375 -53.84375 L 40.078125 -54.09375 L 42.421875 -54.25 L 44.4375 -54.25 L 45.5625 -54.09375 L 46.28125 -53.28125 L 46.6875 -52.234375 L 46.6875 -50.875 L 46.125 -48.453125 L 45.3125 -46.6875 L 44.34375 -45.078125 L 43.296875 -43.390625 L 42.25 -41.9375 L 40.890625 -40.25 L 39.765625 -38.875 L 38.234375 -37.109375 L 37.03125 -35.734375 L 37.109375 -36.9375 L 37.90625 -38.5625 L 39.03125 -40.484375 L 40.40625 -42.421875 L 42.65625 -45.640625 L 43.78125 -47.40625 L 44.59375 -48.703125 L 44.59375 -49.65625 L 43.46875 -50.3125 L 41.125 -50.390625 L 38.46875 -50.21875 L 35.8125 -49.578125 L 32.921875 -48.859375 L 30.015625 -47.96875 L 26.96875 -47 L 23.984375 -46.046875 L 21.015625 -45.078125 L 18.921875 -44.34375 L 16.421875 -43.296875 L 13.515625 -42.09375 L 11.265625 -41.046875 L 8.609375 -39.84375 L 6.59375 -38.796875 L 3.859375 -37.34375 L 2.25 -36.46875 L 0.484375 -35.421875 L -1.375 -34.125 L -2.09375 -33.25 L 0.078125 -31.796875 L 2.015625 -30.75 L 3.78125 -29.625 L 1.375 -29.546875 L 3.859375 -27.359375 L 5.71875 -25.75 L 8.046875 -23.90625 L 10.390625 -22.21875 L 12.3125 -20.84375 L 14.484375 -19.15625 L 16.171875 -17.546875 L 17.703125 -16.09375 L 18.59375 -14.890625 L 18.671875 -11.421875 L 18.59375 -8.9375 L 19.234375 -7.40625 L 20.125 -5.875 L 21.171875 -4.90625 L 22.53125 -4.421875 L 36.140625 -4.421875 L 36.140625 0 L 23.671875 0 L 22.046875 -0.234375 L 20.84375 -0.5625 L 19.640625 -1.453125 L 18.671875 -2.734375 L 17.78125 -4.75 Z M 17.21875 -6.515625 "/></g></g></g><g fill="#092f62" fill-opacity="1"><g transform="translate(504.040722, 102.597101)"><g><path d="M 12.953125 -34.375 L 11.671875 -30.109375 L 6.359375 -32.84375 L 7.640625 -37.265625 Z M 6.6875 -32.03125 L 5.390625 -27.765625 L 0.078125 -30.5 L 1.375 -34.9375 Z M 0 0 L 0 -4.421875 L 5.46875 -4.421875 L 6.765625 -4.5 L 7.890625 -4.75 L 9.734375 -5.390625 L 11.1875 -6.03125 L 12.390625 -6.6875 L 13.359375 -7.5625 L 13.359375 -8.046875 L 12.3125 -9.578125 L 11.34375 -10.78125 L 9.734375 -12.796875 L 8.53125 -14.40625 L 7.40625 -16.09375 L 6.765625 -17.3125 L 6.28125 -18.75 L 5.71875 -19 L 6.203125 -23.09375 L 10.0625 -20.046875 L 11.34375 -18.921875 L 9.25 -18.921875 L 9.25 -18.265625 L 10.46875 -16.828125 L 11.90625 -15.21875 L 13.28125 -13.515625 L 14.25 -11.828125 L 14.5625 -10.625 L 14.5625 -7.5625 L 14.328125 -6.28125 L 13.6875 -4.984375 L 12.640625 -3.625 L 11.515625 -2.65625 L 10.21875 -1.6875 L 8.9375 -0.96875 L 7.5625 -0.328125 L 5.3125 0 Z M 0 0 "/></g></g></g><g fill="#092f62" fill-opacity="1"><g transform="translate(520.688695, 102.597101)"><g><path d="M 27.203125 -3.78125 L 26.15625 -4.90625 L 25.1875 -5.71875 L 24.140625 -5.796875 L 22.9375 -5.46875 L 22.375 -4.671875 L 22.625 -4.109375 L 23.265625 -3.78125 Z M 19.96875 -2.015625 L 19.96875 -5.390625 L 20.203125 -6.359375 L 20.6875 -7.328125 L 21.328125 -8.125 L 22.21875 -9.09375 L 23.34375 -9.734375 L 24.625 -9.984375 L 26.234375 -9.734375 L 27.453125 -8.9375 L 28.578125 -7.890625 L 29.859375 -6.515625 L 30.90625 -5.078125 L 31.390625 -3.78125 L 34.765625 -3.78125 L 34.765625 0 L 32.59375 0 L 32.59375 1.453125 L 32.28125 3.859375 L 31.71875 6.359375 L 30.1875 8.453125 L 26.890625 11.75 L 24.796875 13.28125 L 22.703125 14.96875 L 21.015625 16.171875 L 19.078125 17.390625 L 16.828125 18.515625 L 14.5625 19.5625 L 12.640625 20.28125 L 10.703125 20.6875 L 8.453125 20.921875 L 6.359375 20.921875 L 4.34375 20.765625 L 2.984375 20.203125 L 1.765625 19.5625 L 0.15625 18.109375 L -1.453125 16.09375 L -2.65625 13.609375 L -3.0625 11.34375 L -3.140625 10.296875 L -3.296875 8.765625 L -3.296875 7.5625 L -3.0625 4.421875 L -2.734375 2.171875 L -2.171875 0.328125 L -1.53125 -0.640625 L -0.890625 -0.5625 L -1.375 0.234375 L -1.84375 1.84375 L -2.171875 3.859375 L -2.328125 5.3125 L -2.328125 8.765625 L -2.015625 10.296875 L -1.125 12 L 0.078125 13.609375 L 1.125 14.5625 L 2.5 15.453125 L 4.1875 16.09375 L 5.390625 16.5 L 6.4375 16.65625 L 9.09375 16.65625 L 10.625 16.421875 L 12.640625 15.78125 L 15.453125 14.65625 L 17.953125 13.515625 L 20.046875 12.3125 L 22.140625 10.953125 L 23.90625 9.734375 L 25.359375 8.609375 L 26.796875 7.484375 L 28.8125 5.796875 L 31.0625 3.46875 L 31.0625 2.015625 L 30.828125 0.8125 L 30.34375 0.078125 L 23.34375 0.078125 L 21.8125 -0.15625 L 20.53125 -0.8125 Z M 19.96875 -2.015625 "/></g></g></g><g fill="#092f62" fill-opacity="1"><g transform="translate(554.883634, 102.597101)"><g><path d="M 11.90625 -3.546875 L 10.390625 -2.734375 L 8.9375 -2.09375 L 7.640625 -1.609375 L 6.203125 -1.046875 L 4.671875 -0.5625 L 2.984375 -0.15625 L 0.890625 0 L 0 0 L 0 -4.34375 L 2.25 -4.34375 L 4.90625 -4.5 L 6.765625 -4.90625 L 7.890625 -5.234375 L 8.6875 -5.640625 L 6.6875 -7.078125 L 5.15625 -8.453125 L 4.1875 -9.5 L 3.140625 -10.953125 L 2.421875 -12.640625 L 2.171875 -13.921875 L 2.171875 -15.21875 L 2.5 -17.0625 L 2.984375 -18.265625 L 3.625 -19.5625 L 4.5 -20.6875 L 5.953125 -22.046875 L 7.25 -22.703125 L 8.53125 -23.09375 L 9.8125 -23.265625 L 12.078125 -23.265625 L 13.359375 -23.1875 L 14.96875 -22.703125 L 16.828125 -21.890625 L 18.03125 -21.015625 L 18.75 -20.359375 L 18.75 -19.796875 L 17.546875 -19.796875 L 16.578125 -20.125 L 15.453125 -20.28125 L 12.390625 -20.28125 L 10.703125 -20.046875 L 8.765625 -19.71875 L 7.078125 -19.234375 L 5.546875 -18.59375 L 4.265625 -17.703125 L 3.859375 -17.140625 L 3.859375 -15.609375 L 4.34375 -14.65625 L 5.234375 -13.515625 L 6.359375 -12.3125 L 7.5625 -11.1875 L 9.09375 -10.140625 L 10.703125 -9.34375 L 12 -8.765625 L 13.359375 -8.375 L 14.484375 -8.375 L 15.53125 -8.765625 L 17.3125 -9.734375 L 18.828125 -10.46875 L 20.84375 -11.421875 L 22.625 -12.3125 L 24.234375 -13.203125 L 25.671875 -14 L 26.796875 -14.65625 L 25.84375 -12.5625 L 25.03125 -11.109375 L 24.703125 -10.46875 L 23.984375 -9.984375 L 22.21875 -9.015625 L 20.53125 -8.125 L 18.671875 -7.078125 L 16.421875 -5.875 L 14.40625 -4.828125 Z M 11.90625 -3.546875 "/></g></g></g><g fill="#092f62" fill-opacity="1"><g transform="translate(581.995404, 102.597101)"><g><path d="M 34.203125 -4.421875 L 34.203125 0 L 33.328125 0 L 31.15625 -0.234375 L 29.0625 -1.375 L 27.6875 -2.734375 L 26.71875 -4.265625 L 25.84375 -6.359375 L 25.1875 -8.203125 L 24.796875 -9.8125 L 24.390625 -12.078125 L 23.828125 -10.46875 L 22.78125 -8.53125 L 21.40625 -6.921875 L 20.203125 -5.640625 L 18.75 -4.265625 L 17.546875 -3.296875 L 16.265625 -2.328125 L 14.96875 -1.375 L 13.125 -0.15625 L 10.78125 1.125 L 9.171875 1.84375 L 7.328125 2.578125 L 5.390625 2.890625 L 3.46875 2.890625 L 2.09375 2.421875 L 1.125 1.375 L 0.40625 0.15625 L -0.078125 -2.09375 L -0.078125 -5.234375 L 0.234375 -7.484375 L 0.96875 -9.90625 L 1.9375 -12.15625 L 2.890625 -14.078125 L 3.9375 -16.015625 L 5.078125 -17.625 L 5.15625 -16.734375 L 3.703125 -13.921875 L 2.328125 -10.625 L 1.53125 -8.453125 L 1.28125 -6.84375 L 1.28125 -3.703125 L 2.015625 -2.421875 L 2.984375 -1.765625 L 4.109375 -1.453125 L 6.359375 -1.453125 L 7.5625 -1.84375 L 9.25 -2.578125 L 11.59375 -3.78125 L 13.203125 -4.671875 L 14.734375 -5.71875 L 16.09375 -6.765625 L 17.703125 -7.96875 L 18.921875 -9.015625 L 21.328125 -11.421875 L 21.890625 -12.234375 L 22.78125 -13.515625 L 23.34375 -14.484375 L 23.671875 -15.453125 L 23.5 -16.90625 L 22.9375 -18.828125 L 22.046875 -21.25 L 21.40625 -23.34375 L 20.53125 -25.84375 L 19.71875 -28.015625 L 19.15625 -29.703125 L 18.359375 -31.546875 L 19.078125 -36.375 L 20.53125 -34.375 L 21.65625 -31.625 L 22.78125 -28.734375 L 23.75 -25.84375 L 24.546875 -23.09375 L 25.359375 -20.359375 L 26 -17.546875 L 26.796875 -12.796875 L 27.359375 -10.21875 L 28.09375 -8.203125 L 28.890625 -6.84375 L 29.9375 -5.71875 L 30.75 -5.15625 L 31.796875 -4.671875 L 33.078125 -4.421875 Z M 34.203125 -4.421875 "/></g></g></g><g fill="#092f62" fill-opacity="1"><g transform="translate(615.626874, 102.597101)"><g><path d="M 0 0 L 0 -4.421875 L 5.46875 -4.421875 L 6.765625 -4.5 L 7.890625 -4.75 L 9.734375 -5.390625 L 11.1875 -6.03125 L 12.390625 -6.6875 L 13.359375 -7.5625 L 13.359375 -8.046875 L 12.3125 -9.578125 L 11.34375 -10.78125 L 9.734375 -12.796875 L 8.53125 -14.40625 L 7.40625 -16.09375 L 6.765625 -17.3125 L 6.28125 -18.75 L 5.71875 -19 L 6.203125 -23.09375 L 10.0625 -20.046875 L 11.34375 -18.921875 L 9.25 -18.921875 L 9.25 -18.265625 L 10.46875 -16.828125 L 11.90625 -15.21875 L 13.28125 -13.515625 L 14.25 -11.828125 L 14.5625 -10.625 L 14.5625 -7.5625 L 14.328125 -6.28125 L 13.6875 -4.984375 L 12.640625 -3.625 L 11.515625 -2.65625 L 10.21875 -1.6875 L 8.9375 -0.96875 L 7.5625 -0.328125 L 5.3125 0 Z M 14.5625 8.046875 L 13.28125 12.3125 L 7.96875 9.578125 L 9.25 5.15625 Z M 14.5625 8.046875 "/></g></g></g><g fill="#092f62" fill-opacity="1"><g transform="translate(631.389463, 102.597101)"><g/></g></g><g fill="#092f62" fill-opacity="1"><g transform="translate(643.208003, 102.597101)"><g><path d="M 29.90625 -35.90625 L 34.171875 -33.71875 L 33.046875 -29.296875 L 28.9375 -31.46875 Z M 37.46875 -17.0625 L 36.015625 -18.4375 L 35.046875 -19.078125 L 33.6875 -19.078125 L 32.796875 -18.671875 L 32.5625 -17.875 L 33.046875 -17.3125 L 33.6875 -17.0625 Z M 30.390625 -15.609375 L 30.390625 -17.140625 L 30.625 -18.671875 L 31.03125 -20.046875 L 31.59375 -21.171875 L 32.484375 -22.21875 L 33.609375 -22.859375 L 34.734375 -23.015625 L 36.5 -22.9375 L 37.703125 -22.140625 L 38.84375 -21.09375 L 40.125 -19.71875 L 41.09375 -17.953125 L 41.96875 -15.703125 L 42.453125 -14 L 42.453125 -12.234375 L 41.96875 -9.65625 L 41.40625 -8.203125 L 40.453125 -6.921875 L 39.15625 -5.875 L 37.875 -4.984375 L 36.015625 -3.859375 L 32.953125 -2.328125 L 31.265625 -1.609375 L 29.34375 -0.890625 L 27.078125 -0.078125 L 24.828125 0.640625 L 22.90625 1.203125 L 20.96875 1.6875 L 18.71875 2.171875 L 15.8125 2.65625 L 12.359375 2.734375 L 10.578125 2.578125 L 8.40625 2.25 L 6.5625 1.609375 L 4.46875 0.328125 L 3.09375 -1.046875 L 2.21875 -2.25 L 1.484375 -3.78125 L 1.09375 -5.546875 L 0.765625 -7.96875 L 0.765625 -9.34375 L 1.09375 -11.421875 L 1.65625 -13.28125 L 2.21875 -14.65625 L 2.703125 -14.65625 L 2.703125 -13.359375 L 2.21875 -12.234375 L 2.140625 -9.09375 L 2.453125 -8.296875 L 3.015625 -6.765625 L 4.140625 -5.078125 L 5.359375 -3.859375 L 6.484375 -3.140625 L 8.734375 -2.171875 L 10.671875 -1.53125 L 13.40625 -1.53125 L 15.65625 -1.609375 L 17.5 -1.765625 L 19.765625 -2.25 L 22.25 -2.734375 L 24.265625 -3.296875 L 26.515625 -4.03125 L 28.21875 -4.59375 L 30.296875 -5.390625 L 32.390625 -6.203125 L 34.171875 -6.921875 L 35.609375 -7.5625 L 37.0625 -8.296875 L 39.078125 -9.34375 L 41.015625 -10.625 L 41.015625 -11.34375 L 40.53125 -12 L 39.484375 -12.71875 L 38.359375 -13.203125 L 32.875 -13.203125 L 31.828125 -13.515625 L 30.953125 -14.171875 Z M 30.390625 -15.609375 "/></g></g></g><g fill="#092f62" fill-opacity="1"><g transform="translate(686.337382, 102.597101)"><g><path d="M 22.625 -6.765625 L 23.75 -7.078125 L 25.359375 -7.484375 L 27.6875 -7.484375 L 28.734375 -7.328125 L 29.9375 -7 L 31.15625 -6.03125 L 32.03125 -5.078125 L 33.484375 -4.421875 L 34.28125 -4.421875 L 34.28125 0 L 32.765625 0 L 31.546875 -0.328125 L 30.5 -1.046875 L 29.78125 -1.84375 L 28.5 -2.890625 L 27.453125 -3.21875 L 25.109375 -3.21875 L 23.578125 -2.984375 L 22.21875 -2.5 L 20.84375 -1.765625 L 19 -0.484375 L 17.625 0.640625 L 16.171875 2.015625 L 14.890625 3.140625 L 13.6875 4.265625 L 12 5.796875 L 10.21875 7.5625 L 8.859375 8.9375 L 7.640625 10.21875 L 5.875 11.75 L 4.421875 12.796875 L 2.65625 13.84375 L 0.890625 14.25 L -0.96875 14.078125 L -2.421875 13.4375 L -3.625 12.390625 L -4.5 11.109375 L -5.234375 8.6875 L -5.234375 6.4375 L -4.90625 4.1875 L -4.34375 1.9375 L -3.78125 0.484375 L -2.8125 -1.53125 L -1.9375 -3.0625 L -0.8125 -4.828125 L -0.078125 -3.9375 L -1.203125 -1.609375 L -2.015625 0 L -2.65625 1.453125 L -2.984375 2.65625 L -3.46875 4.265625 L -3.703125 5.46875 L -3.703125 8.53125 L -3.296875 9.65625 L -2.421875 10.625 L -1.125 10.859375 L 0.328125 10.625 L 1.453125 10.140625 L 2.578125 9.578125 L 3.859375 8.765625 L 4.90625 8.046875 L 5.875 7.40625 L 7.078125 6.28125 L 8.125 5.3125 L 13.921875 -0.484375 L 16.171875 -2.578125 L 17.46875 -3.703125 L 18.828125 -4.75 L 20.125 -5.546875 L 21.25 -6.203125 Z M 22.625 -6.765625 "/></g></g></g><g fill="#092f62" fill-opacity="1"><g transform="translate(720.049355, 102.597101)"><g><path d="M 13.046875 1.9375 L 11.421875 1.125 L 10.46875 0.078125 L 9.984375 -1.28125 L 9.65625 -2.578125 L 9.65625 -3.859375 L 7.890625 -2.578125 L 6.28125 -1.765625 L 4.828125 -1.046875 L 3.375 -0.5625 L 1.453125 -0.046875 L 0 0 L 0 -4.34375 L 1.453125 -4.390625 L 4.1875 -4.828125 L 6.59375 -5.640625 L 9.171875 -6.765625 L 12.078125 -8.203125 L 11.421875 -7.15625 L 11.421875 -5.15625 L 12.078125 -3.9375 L 12.796875 -3.21875 L 13.6875 -2.5 L 15.125 -2.5 L 16.421875 -2.578125 L 17.390625 -2.8125 L 18.921875 -3.703125 L 20.125 -4.828125 L 20.84375 -5.953125 L 22.21875 -7.734375 L 23.34375 -8.375 L 22.625 -6.59375 L 22.78125 -5.546875 L 23.671875 -4.265625 L 24.625 -3.625 L 26.15625 -3.625 L 27.203125 -4.1875 L 28.328125 -5.234375 L 29.140625 -6.59375 L 31.15625 -9.5 L 31.390625 -7.484375 L 32.03125 -6.125 L 33.484375 -4.90625 L 35.90625 -4.34375 L 37.1875 -4.34375 L 37.1875 0 L 35.421875 0 L 33.640625 -0.328125 L 31.546875 -1.125 L 30.421875 -2.25 L 29.625 -4.5 L 28.734375 -2.25 L 27.359375 -0.5625 L 26.484375 0.078125 L 25.28125 0.5625 L 23.671875 0.5625 L 22.140625 -0.234375 L 21.09375 -2.421875 L 20.203125 -1.203125 L 18.59375 0.40625 L 17.0625 1.453125 L 15.703125 1.84375 L 14.8125 1.84375 L 13.921875 2.015625 Z M 17.0625 -28.40625 L 21.65625 -25.28125 L 19.96875 -21.65625 L 15.375 -24.703125 Z M 22.375 -23.75 L 26.96875 -20.609375 L 25.28125 -16.984375 L 20.6875 -20.046875 Z M 16.34375 -22.375 L 20.921875 -19.234375 L 19.234375 -15.609375 L 14.65625 -18.671875 Z M 16.34375 -22.375 "/></g></g></g><g fill="#092f62" fill-opacity="1"><g transform="translate(756.658988, 102.597101)"><g><path d="M 15.859375 -4.34375 L 15.859375 0 L 14.96875 0 L 14.078125 -0.15625 L 12.640625 -0.5625 L 11.671875 -1.046875 L 10.625 -2.015625 L 9.984375 -3.140625 L 9.578125 -5.078125 L 9.09375 -4.03125 L 8.453125 -2.8125 L 7.640625 -1.6875 L 6.921875 -0.96875 L 5.640625 -0.234375 L 3.859375 0 L 0 0 L 0 -4.34375 L 4.671875 -4.34375 L 5.875 -4.421875 L 7 -4.75 L 7.8125 -5.46875 L 8.375 -6.359375 L 8.9375 -7.328125 L 9.734375 -8.453125 L 10.78125 -9.5 L 10.78125 -7.15625 L 11.421875 -6.03125 L 12.390625 -5.3125 L 13.515625 -4.59375 L 14.96875 -4.34375 Z M 15.125 -24.546875 L 13.84375 -20.28125 L 8.6875 -23.015625 L 9.984375 -27.453125 Z M 8.859375 -22.21875 L 7.5625 -17.953125 L 2.421875 -20.6875 L 3.703125 -25.109375 Z M 8.859375 -22.21875 "/></g></g></g><g fill="#092f62" fill-opacity="1"><g transform="translate(771.93861, 102.597101)"><g><path d="M 0 0 L 0 -4.421875 L 3.0625 -4.421875 L 4.34375 -4.5 L 5.46875 -4.75 L 7.328125 -5.390625 L 8.765625 -6.03125 L 9.984375 -6.6875 L 10.953125 -7.5625 L 10.953125 -8.046875 L 9.90625 -9.578125 L 8.9375 -10.78125 L 7.328125 -12.796875 L 6.125 -14.40625 L 4.984375 -16.09375 L 4.34375 -17.3125 L 3.859375 -18.75 L 3.296875 -19 L 3.78125 -23.09375 L 7.640625 -20.046875 L 8.9375 -18.921875 L 6.84375 -18.921875 L 6.84375 -18.265625 L 8.046875 -16.828125 L 9.5 -15.21875 L 10.859375 -13.515625 L 11.828125 -11.828125 L 12.15625 -10.625 L 12.15625 -7.5625 L 11.90625 -6.28125 L 11.265625 -4.984375 L 10.21875 -3.625 L 9.09375 -2.65625 L 7.8125 -1.6875 L 6.515625 -0.96875 L 5.15625 -0.328125 L 2.890625 0 Z M 7.890625 -35.421875 L 6.59375 -31.15625 L 1.453125 -33.890625 L 2.734375 -38.3125 Z M 7.890625 -35.421875 "/></g></g></g><g fill="#092f62" fill-opacity="1"><g transform="translate(784.646506, 102.597101)"><g/></g></g></svg>