<svg xmlns="http://www.w3.org/2000/svg" xmlns:xlink="http://www.w3.org/1999/xlink" width="829" zoomAndPan="magnify" viewBox="0 0 621.75 215.249992" height="287" preserveAspectRatio="xMidYMid meet" version="1.0"><defs><g/></defs><g fill="#ffffff" fill-opacity="1"><g transform="translate(164.199937, 90.284713)"><g><path d="M 15.15625 -29.328125 L 19.15625 -27.296875 L 18.09375 -23.140625 L 14.25 -25.1875 Z M 31.0625 -11.453125 L 30.453125 -12.890625 L 31.359375 -16.65625 L 34.984375 -12.59375 L 33.171875 -12.96875 L 33.78125 -11.765625 L 34.828125 -9.421875 L 35.890625 -6.484375 L 36.1875 -4.53125 L 36.1875 -2.5625 L 35.734375 -0.609375 L 34.828125 1.125 L 33.78125 2.40625 L 31.0625 5.28125 L 29.546875 6.40625 L 28.5 7.15625 L 27.140625 8.140625 L 25.484375 9.203125 L 23.828125 10.171875 L 22.015625 11.15625 L 20.5 11.84375 L 18.703125 12.59375 L 17.1875 13.125 L 15.828125 13.5 L 14.015625 13.796875 L 12.515625 14.09375 L 8.296875 14.09375 L 6.78125 13.71875 L 5.28125 13.046875 L 3.625 11.84375 L 2.5625 10.484375 L 1.515625 8.59375 L 0.609375 6.1875 L 0.296875 3.84375 L 0 1.8125 L 0 -1.125 L 0.21875 -2.9375 L 0.609375 -4.453125 L 0.984375 -5.953125 L 1.578125 -5.203125 L 1.125 -3.625 L 0.90625 -1.28125 L 0.90625 1.515625 L 1.359375 3.546875 L 1.953125 4.96875 L 3.015625 6.703125 L 4.53125 8.0625 L 5.875 8.96875 L 7.546875 9.65625 L 8.75 10.03125 L 12.96875 10.03125 L 14.171875 9.796875 L 15.984375 9.265625 L 17.796875 8.671875 L 19.609375 7.921875 L 21.40625 7.15625 L 23.671875 6.03125 L 25.484375 5.125 L 26.984375 4.21875 L 28.34375 3.390625 L 29.859375 2.34375 L 31.515625 1.125 L 33.171875 -0.296875 L 34.6875 -1.953125 L 34.6875 -3.015625 L 33.921875 -4.671875 L 32.265625 -8.515625 Z M 31.0625 -11.453125 "/></g></g></g><g fill="#ffffff" fill-opacity="1"><g transform="translate(201.426314, 90.284713)"><g><path d="M 2.078125 -45.3125 L 6.515625 -35.96875 L 3.953125 -37.546875 L 6.96875 -12.96875 L 6.96875 -3.765625 L 5.921875 -0.375 L 5.46875 -0.375 L 5.46875 -5.734375 L 4.859375 -11.15625 L 1.546875 -39.8125 L 0.9375 -41.234375 Z M 2.078125 -45.3125 "/></g></g></g><g fill="#ffffff" fill-opacity="1"><g transform="translate(209.517247, 90.284713)"><g><path d="M 21.1875 -6.328125 L 22.234375 -6.640625 L 23.75 -7.015625 L 25.9375 -7.015625 L 26.921875 -6.859375 L 28.046875 -6.5625 L 29.171875 -5.65625 L 30 -4.75 L 31.359375 -4.140625 L 32.125 -4.140625 L 32.125 0 L 30.6875 0 L 29.546875 -0.296875 L 28.578125 -0.984375 L 27.890625 -1.734375 L 26.6875 -2.71875 L 25.703125 -3.015625 L 23.515625 -3.015625 L 22.09375 -2.796875 L 20.8125 -2.34375 L 19.53125 -1.65625 L 17.796875 -0.453125 L 16.515625 0.609375 L 15.15625 1.890625 L 13.953125 2.9375 L 12.8125 4 L 11.234375 5.421875 L 9.578125 7.09375 L 8.296875 8.375 L 7.15625 9.578125 L 5.5 11 L 4.140625 11.984375 L 2.484375 12.96875 L 0.828125 13.34375 L -0.90625 13.1875 L -2.265625 12.59375 L -3.390625 11.609375 L -4.21875 10.40625 L -4.90625 8.140625 L -4.90625 6.03125 L -4.59375 3.921875 L -4.078125 1.8125 L -3.546875 0.453125 L -2.640625 -1.4375 L -1.8125 -2.859375 L -0.75 -4.53125 L -0.078125 -3.6875 L -1.125 -1.515625 L -1.890625 0 L -2.484375 1.359375 L -2.796875 2.484375 L -3.234375 4 L -3.46875 5.125 L -3.46875 7.984375 L -3.09375 9.046875 L -2.265625 9.953125 L -1.0625 10.171875 L 0.296875 9.953125 L 1.359375 9.5 L 2.40625 8.96875 L 3.625 8.21875 L 4.59375 7.546875 L 5.5 6.9375 L 6.640625 5.875 L 7.609375 4.96875 L 8.96875 3.625 L 9.875 2.71875 L 11 1.578125 L 11.984375 0.609375 L 13.046875 -0.453125 L 14.09375 -1.4375 L 15.15625 -2.40625 L 16.359375 -3.46875 L 17.640625 -4.453125 L 18.84375 -5.203125 L 19.90625 -5.8125 Z M 21.1875 -6.328125 "/></g></g></g><g fill="#ffffff" fill-opacity="1"><g transform="translate(241.089915, 90.284713)"><g><path d="M 7.390625 -23.21875 L 6.1875 -19.21875 L 1.203125 -21.78125 L 2.40625 -25.9375 Z M 12.515625 -26.234375 L 11.3125 -22.234375 L 6.484375 -24.796875 L 7.6875 -28.953125 Z M 8.296875 -6.40625 L 9.5 -7.15625 L 10.40625 -7.984375 L 11.15625 -8.96875 L 11.15625 -9.953125 L 10.859375 -10.625 L 10.40625 -11.453125 L 9.71875 -12.0625 L 8.75 -12.0625 L 7.984375 -11.390625 L 7.234375 -10.484375 L 6.640625 -9.578125 L 6.5625 -8.671875 L 7.09375 -7.6875 L 7.765625 -6.859375 Z M 15.53125 -4.078125 L 15.53125 0 L 14.328125 0 L 12.671875 -0.15625 L 11 -0.53125 L 9.578125 -1.125 L 8.375 -1.953125 L 7.609375 -2.71875 L 6.1875 -1.65625 L 4.828125 -0.90625 L 3.015625 -0.21875 L 1.359375 0 L 0 0 L 0 -4.078125 L 2.1875 -4.078125 L 3.921875 -4.21875 L 5.28125 -4.59375 L 5.875 -5.28125 L 5.65625 -6.03125 L 5.421875 -6.9375 L 5.421875 -9.421875 L 5.875 -11.53125 L 6.640625 -13.1875 L 7.390625 -14.328125 L 8.21875 -15.15625 L 9.34375 -15.75 L 10.625 -15.6875 L 11.53125 -14.78125 L 11.984375 -13.875 L 12.359375 -12.359375 L 12.4375 -9.953125 L 12.296875 -7.921875 L 11.765625 -6.5625 L 11.234375 -5.734375 L 10.5625 -5.046875 L 11.84375 -4.21875 L 13.265625 -4.078125 Z M 15.53125 -4.078125 "/></g></g></g><g fill="#ffffff" fill-opacity="1"><g transform="translate(256.078372, 90.284713)"><g><path d="M 3.234375 -46.0625 L 7.6875 -36.71875 L 5.125 -38.296875 L 8.140625 -13.71875 L 8.140625 -6.78125 L 7.6875 -4.53125 L 6.484375 -2.71875 L 5.28125 -1.4375 L 4.375 -0.828125 L 2.859375 -0.296875 L 1.359375 0 L 0 0 L 0 -4.140625 L 3.3125 -4.140625 L 4.671875 -4.53125 L 5.875 -5.421875 L 6.484375 -6.78125 L 6.03125 -11.90625 L 2.71875 -40.5625 L 2.109375 -42 Z M 3.234375 -46.0625 "/></g></g></g><g fill="#ffffff" fill-opacity="1"><g transform="translate(265.488503, 90.284713)"><g/></g></g><g fill="#ffffff" fill-opacity="1"><g transform="translate(276.557056, 90.284713)"><g><path d="M 32.046875 -4.140625 L 32.046875 0 L 31.21875 0 L 29.171875 -0.21875 L 27.21875 -1.28125 L 25.9375 -2.5625 L 25.03125 -4 L 24.203125 -5.953125 L 23.59375 -7.6875 L 23.21875 -9.203125 L 22.84375 -11.3125 L 22.3125 -9.796875 L 21.34375 -7.984375 L 20.0625 -6.484375 L 18.921875 -5.28125 L 17.5625 -4 L 16.4375 -3.09375 L 15.234375 -2.1875 L 14.015625 -1.28125 L 12.296875 -0.15625 L 10.109375 1.0625 L 8.59375 1.734375 L 6.859375 2.40625 L 5.046875 2.71875 L 3.234375 2.71875 L 1.953125 2.265625 L 1.0625 1.28125 L 0.375 0.15625 L -0.078125 -1.953125 L -0.078125 -4.90625 L 0.21875 -7.015625 L 0.90625 -9.265625 L 1.8125 -11.390625 L 2.71875 -13.1875 L 3.6875 -15 L 4.75 -16.515625 L 4.828125 -15.6875 L 3.46875 -13.046875 L 2.1875 -9.953125 L 1.4375 -7.921875 L 1.203125 -6.40625 L 1.203125 -3.46875 L 1.890625 -2.265625 L 2.796875 -1.65625 L 3.84375 -1.359375 L 5.953125 -1.359375 L 7.09375 -1.734375 L 8.671875 -2.40625 L 10.859375 -3.546875 L 12.359375 -4.375 L 13.796875 -5.359375 L 15.078125 -6.328125 L 16.59375 -7.46875 L 17.71875 -8.4375 L 18.765625 -9.5 L 19.984375 -10.703125 L 20.5 -11.453125 L 21.34375 -12.671875 L 21.859375 -13.578125 L 22.171875 -14.46875 L 22.015625 -15.828125 L 21.484375 -17.640625 L 20.65625 -19.90625 L 20.0625 -21.859375 L 19.21875 -24.203125 L 18.46875 -26.234375 L 17.9375 -27.8125 L 17.1875 -29.546875 L 17.875 -34.078125 L 19.21875 -32.1875 L 20.28125 -29.625 L 21.34375 -26.921875 L 22.234375 -24.203125 L 23 -21.640625 L 23.75 -19.078125 L 24.359375 -16.4375 L 25.109375 -11.984375 L 25.640625 -9.578125 L 26.3125 -7.6875 L 27.0625 -6.40625 L 28.046875 -5.359375 L 28.796875 -4.828125 L 29.78125 -4.375 L 30.984375 -4.140625 Z M 32.046875 -4.140625 "/></g></g></g><g fill="#ffffff" fill-opacity="1"><g transform="translate(308.054341, 90.284713)"><g><path d="M 7.390625 -23.21875 L 6.1875 -19.21875 L 1.203125 -21.78125 L 2.40625 -25.9375 Z M 12.515625 -26.234375 L 11.3125 -22.234375 L 6.484375 -24.796875 L 7.6875 -28.953125 Z M 8.296875 -6.40625 L 9.5 -7.15625 L 10.40625 -7.984375 L 11.15625 -8.96875 L 11.15625 -9.953125 L 10.859375 -10.625 L 10.40625 -11.453125 L 9.71875 -12.0625 L 8.75 -12.0625 L 7.984375 -11.390625 L 7.234375 -10.484375 L 6.640625 -9.578125 L 6.5625 -8.671875 L 7.09375 -7.6875 L 7.765625 -6.859375 Z M 15.53125 -4.078125 L 15.53125 0 L 14.328125 0 L 12.671875 -0.15625 L 11 -0.53125 L 9.578125 -1.125 L 8.375 -1.953125 L 7.609375 -2.71875 L 6.1875 -1.65625 L 4.828125 -0.90625 L 3.015625 -0.21875 L 1.359375 0 L 0 0 L 0 -4.078125 L 2.1875 -4.078125 L 3.921875 -4.21875 L 5.28125 -4.59375 L 5.875 -5.28125 L 5.65625 -6.03125 L 5.421875 -6.9375 L 5.421875 -9.421875 L 5.875 -11.53125 L 6.640625 -13.1875 L 7.390625 -14.328125 L 8.21875 -15.15625 L 9.34375 -15.75 L 10.625 -15.6875 L 11.53125 -14.78125 L 11.984375 -13.875 L 12.359375 -12.359375 L 12.4375 -9.953125 L 12.296875 -7.921875 L 11.765625 -6.5625 L 11.234375 -5.734375 L 10.5625 -5.046875 L 11.84375 -4.21875 L 13.265625 -4.078125 Z M 15.53125 -4.078125 "/></g></g></g><g fill="#ffffff" fill-opacity="1"><g transform="translate(323.042798, 90.284713)"><g><path d="M 11.15625 -3.3125 L 9.71875 -2.5625 L 8.375 -1.953125 L 7.15625 -1.515625 L 5.8125 -0.984375 L 4.375 -0.53125 L 2.796875 -0.15625 L 0.828125 0 L 0 0 L 0 -4.078125 L 2.109375 -4.078125 L 4.59375 -4.21875 L 6.328125 -4.59375 L 7.390625 -4.90625 L 8.140625 -5.28125 L 6.25 -6.640625 L 4.828125 -7.921875 L 3.921875 -8.890625 L 2.9375 -10.25 L 2.265625 -11.84375 L 2.03125 -13.046875 L 2.03125 -14.25 L 2.34375 -15.984375 L 2.796875 -17.109375 L 3.390625 -18.328125 L 4.21875 -19.375 L 5.578125 -20.65625 L 6.78125 -21.265625 L 7.984375 -21.640625 L 9.203125 -21.78125 L 11.3125 -21.78125 L 12.515625 -21.71875 L 14.015625 -21.265625 L 15.75 -20.5 L 16.890625 -19.671875 L 17.5625 -19.078125 L 17.5625 -18.546875 L 16.4375 -18.546875 L 15.53125 -18.84375 L 14.46875 -19 L 11.609375 -19 L 10.03125 -18.765625 L 8.21875 -18.46875 L 6.640625 -18.015625 L 5.203125 -17.421875 L 4 -16.59375 L 3.625 -16.0625 L 3.625 -14.625 L 4.078125 -13.71875 L 4.90625 -12.671875 L 5.953125 -11.53125 L 7.09375 -10.484375 L 8.515625 -9.5 L 10.03125 -8.75 L 11.234375 -8.21875 L 12.515625 -7.84375 L 13.578125 -7.84375 L 14.546875 -8.21875 L 16.203125 -9.125 L 17.640625 -9.796875 L 19.53125 -10.703125 L 21.1875 -11.53125 L 22.6875 -12.359375 L 24.046875 -13.125 L 25.109375 -13.71875 L 24.203125 -11.765625 L 23.453125 -10.40625 L 23.140625 -9.796875 L 22.46875 -9.34375 L 20.8125 -8.4375 L 19.21875 -7.609375 L 17.484375 -6.640625 L 15.375 -5.5 L 13.5 -4.53125 Z M 11.15625 -3.3125 "/></g></g></g><g fill="#ffffff" fill-opacity="1"><g transform="translate(348.434078, 90.284713)"><g/></g></g><g fill="#ffffff" fill-opacity="1"><g transform="translate(359.502642, 90.284713)"><g><path d="M 7.390625 -8.375 L 6.1875 -6.703125 L 5.359375 -5.28125 L 4.828125 -4 L 4.453125 -2.859375 L 4.453125 -1.8125 L 5.359375 -1.359375 L 6.5625 -1.515625 L 7.765625 -2.03125 L 8.828125 -2.9375 L 9.875 -3.84375 L 10.484375 -4.375 L 10.484375 -5.203125 L 9.71875 -6.109375 L 8.75 -7.09375 Z M 13.34375 -20.203125 L 13.421875 -17.875 L 13.125 -16.65625 L 12.21875 -15.234375 L 11.234375 -13.796875 L 10.03125 -12.21875 L 8.96875 -10.9375 L 10.171875 -9.71875 L 10.859375 -8.671875 L 11.53125 -6.25 L 11.453125 -3.84375 L 10.9375 -1.65625 L 9.796875 -0.15625 L 8.296875 1.203125 L 6.9375 2.1875 L 5.875 2.5625 L 4.671875 2.5625 L 3.546875 1.8125 L 3.171875 0.453125 L 3.171875 -1.8125 L 3.46875 -3.921875 L 3.84375 -5.203125 L 4.59375 -6.859375 L 5.5 -8.4375 L 6.03125 -9.421875 L 4.671875 -10.625 L 3.234375 -12.21875 L 2.1875 -13.875 L 1.890625 -15.078125 L 1.203125 -15.15625 L 1.203125 -19 L 4.21875 -17.03125 L 6.1875 -15.75 L 4.21875 -15.453125 L 5.734375 -13.953125 L 6.9375 -12.890625 L 7.6875 -12.296875 L 8.890625 -13.796875 L 9.953125 -15.15625 L 10.9375 -16.515625 L 12.4375 -18.765625 Z M 13.125 -31.28125 L 11.90625 -27.296875 L 6.9375 -29.859375 L 8.140625 -34 Z M 7.234375 -29.109375 L 6.03125 -25.109375 L 1.0625 -27.671875 L 2.265625 -31.8125 Z M 7.234375 -29.109375 "/></g></g></g><g fill="#ffffff" fill-opacity="1"><g transform="translate(373.963409, 90.284713)"><g><path d="M 25.484375 -3.546875 L 24.5 -4.59375 L 23.59375 -5.359375 L 22.625 -5.421875 L 21.484375 -5.125 L 20.953125 -4.375 L 21.1875 -3.84375 L 21.78125 -3.546875 Z M 18.703125 -1.890625 L 18.703125 -5.046875 L 18.921875 -5.953125 L 19.375 -6.859375 L 19.984375 -7.609375 L 20.8125 -8.515625 L 21.859375 -9.125 L 23.078125 -9.34375 L 24.578125 -9.125 L 25.703125 -8.375 L 26.765625 -7.390625 L 27.96875 -6.109375 L 28.953125 -4.75 L 29.40625 -3.546875 L 32.5625 -3.546875 L 32.5625 0 L 30.53125 0 L 30.53125 1.359375 L 30.234375 3.625 L 29.703125 5.953125 L 28.265625 7.921875 L 25.1875 11 L 23.21875 12.4375 L 21.265625 14.015625 L 19.671875 15.15625 L 17.875 16.28125 L 15.75 17.34375 L 13.640625 18.328125 L 11.84375 19 L 10.03125 19.375 L 7.921875 19.609375 L 5.953125 19.609375 L 4.078125 19.453125 L 2.796875 18.921875 L 1.65625 18.328125 L 0.15625 16.96875 L -1.359375 15.078125 L -2.484375 12.734375 L -2.859375 10.625 L -2.9375 9.65625 L -3.09375 8.21875 L -3.09375 7.09375 L -2.859375 4.140625 L -2.5625 2.03125 L -2.03125 0.296875 L -1.4375 -0.609375 L -0.828125 -0.53125 L -1.28125 0.21875 L -1.734375 1.734375 L -2.03125 3.625 L -2.1875 4.96875 L -2.1875 8.21875 L -1.890625 9.65625 L -1.0625 11.234375 L 0.078125 12.734375 L 1.0625 13.640625 L 2.34375 14.46875 L 3.921875 15.078125 L 5.046875 15.453125 L 6.03125 15.609375 L 8.515625 15.609375 L 9.953125 15.375 L 11.84375 14.78125 L 14.46875 13.71875 L 16.8125 12.671875 L 18.765625 11.53125 L 20.734375 10.25 L 22.390625 9.125 L 23.75 8.0625 L 25.109375 7.015625 L 26.984375 5.421875 L 29.109375 3.234375 L 29.109375 1.890625 L 28.875 0.75 L 28.421875 0.078125 L 21.859375 0.078125 L 20.4375 -0.15625 L 19.21875 -0.75 Z M 18.703125 -1.890625 "/></g></g></g><g fill="#ffffff" fill-opacity="1"><g transform="translate(405.988385, 90.284713)"><g><path d="M 11.15625 -3.3125 L 9.71875 -2.5625 L 8.375 -1.953125 L 7.15625 -1.515625 L 5.8125 -0.984375 L 4.375 -0.53125 L 2.796875 -0.15625 L 0.828125 0 L 0 0 L 0 -4.078125 L 2.109375 -4.078125 L 4.59375 -4.21875 L 6.328125 -4.59375 L 7.390625 -4.90625 L 8.140625 -5.28125 L 6.25 -6.640625 L 4.828125 -7.921875 L 3.921875 -8.890625 L 2.9375 -10.25 L 2.265625 -11.84375 L 2.03125 -13.046875 L 2.03125 -14.25 L 2.34375 -15.984375 L 2.796875 -17.109375 L 3.390625 -18.328125 L 4.21875 -19.375 L 5.578125 -20.65625 L 6.78125 -21.265625 L 7.984375 -21.640625 L 9.203125 -21.78125 L 11.3125 -21.78125 L 12.515625 -21.71875 L 14.015625 -21.265625 L 15.75 -20.5 L 16.890625 -19.671875 L 17.5625 -19.078125 L 17.5625 -18.546875 L 16.4375 -18.546875 L 15.53125 -18.84375 L 14.46875 -19 L 11.609375 -19 L 10.03125 -18.765625 L 8.21875 -18.46875 L 6.640625 -18.015625 L 5.203125 -17.421875 L 4 -16.59375 L 3.625 -16.0625 L 3.625 -14.625 L 4.078125 -13.71875 L 4.90625 -12.671875 L 5.953125 -11.53125 L 7.09375 -10.484375 L 8.515625 -9.5 L 10.03125 -8.75 L 11.234375 -8.21875 L 12.515625 -7.84375 L 13.578125 -7.84375 L 14.546875 -8.21875 L 16.203125 -9.125 L 17.640625 -9.796875 L 19.53125 -10.703125 L 21.1875 -11.53125 L 22.6875 -12.359375 L 24.046875 -13.125 L 25.109375 -13.71875 L 24.203125 -11.765625 L 23.453125 -10.40625 L 23.140625 -9.796875 L 22.46875 -9.34375 L 20.8125 -8.4375 L 19.21875 -7.609375 L 17.484375 -6.640625 L 15.375 -5.5 L 13.5 -4.53125 Z M 11.15625 -3.3125 "/></g></g></g><g fill="#ffffff" fill-opacity="1"><g transform="translate(431.379677, 90.284713)"><g><path d="M 9.34375 -25.25 L 13.71875 -22.84375 L 11.3125 -22.6875 L 11.90625 -22.015625 L 12.96875 -21.109375 L 14.921875 -19.90625 L 17.34375 -18.703125 L 19.453125 -17.640625 L 22.171875 -16.140625 L 23.515625 -14.625 L 24.28125 -12.359375 L 24.421875 -9.578125 L 23.96875 -8.140625 L 23.21875 -6.328125 L 19.15625 -3.3125 L 15.828125 -0.984375 L 13.125 0.828125 L 11 2.265625 L 8.296875 3.921875 L 6.328125 4.671875 L 4.96875 4.96875 L 3.625 4.96875 L 2.1875 4.21875 L 1.203125 2.40625 L 0.75 0.90625 L 0.75 -1.890625 L 1.359375 -5.046875 L 2.71875 -9.125 L 3.234375 -8.59375 L 2.640625 -6.78125 L 2.265625 -4.75 L 2.1875 -2.859375 L 2.1875 -0.671875 L 3.09375 0.53125 L 4.296875 1.359375 L 4.90625 1.359375 L 6.1875 0.90625 L 8.4375 -0.21875 L 11.15625 -1.734375 L 13.578125 -3.234375 L 16.4375 -5.046875 L 19.296875 -7.015625 L 22.46875 -9.265625 L 23.140625 -9.953125 L 22.3125 -11.53125 L 17.796875 -14.171875 L 15.078125 -15.53125 L 12.671875 -17.109375 L 10.859375 -18.703125 L 9.34375 -20.359375 L 8.59375 -21.1875 L 8.296875 -21.859375 L 7.546875 -21.859375 L 7.84375 -24.65625 L 7.984375 -26.3125 Z M 9.34375 -25.25 "/></g></g></g></svg>