<svg xmlns="http://www.w3.org/2000/svg" xmlns:xlink="http://www.w3.org/1999/xlink" width="830" zoomAndPan="magnify" viewBox="0 0 622.5 219" height="292" preserveAspectRatio="xMidYMid meet" version="1.0"><defs><g/></defs><g fill="#092f62" fill-opacity="1"><g transform="translate(38.133931, 75.245345)"><g><path d="M 11.859375 -22.9375 L 14.984375 -21.34375 L 14.15625 -18.109375 L 11.140625 -19.703125 Z M 24.296875 -8.96875 L 23.828125 -10.078125 L 24.53125 -13.03125 L 27.359375 -9.84375 L 25.953125 -10.140625 L 26.421875 -9.203125 L 27.25 -7.375 L 28.078125 -5.078125 L 28.3125 -3.53125 L 28.3125 -2 L 27.953125 -0.46875 L 27.25 0.890625 L 26.421875 1.890625 L 25.359375 3 L 24.296875 4.125 L 23.125 5.015625 L 22.296875 5.609375 L 21.234375 6.375 L 19.9375 7.1875 L 18.640625 7.96875 L 17.21875 8.734375 L 16.046875 9.265625 L 14.625 9.84375 L 13.453125 10.265625 L 12.390625 10.5625 L 10.96875 10.796875 L 9.796875 11.03125 L 6.484375 11.03125 L 5.3125 10.734375 L 4.125 10.203125 L 2.828125 9.265625 L 2 8.203125 L 1.171875 6.71875 L 0.46875 4.84375 L 0.234375 3 L 0 1.421875 L 0 -0.890625 L 0.171875 -2.296875 L 0.46875 -3.484375 L 0.765625 -4.65625 L 1.234375 -4.0625 L 0.890625 -2.828125 L 0.703125 -1 L 0.703125 1.171875 L 1.0625 2.765625 L 1.53125 3.890625 L 2.359375 5.25 L 3.53125 6.3125 L 4.59375 7.015625 L 5.890625 7.546875 L 6.84375 7.84375 L 10.140625 7.84375 L 11.09375 7.671875 L 12.5 7.25 L 13.921875 6.78125 L 15.328125 6.1875 L 16.75 5.609375 L 18.515625 4.71875 L 19.9375 4.015625 L 21.109375 3.296875 L 22.171875 2.65625 L 23.359375 1.828125 L 24.65625 0.890625 L 25.953125 -0.234375 L 27.125 -1.53125 L 27.125 -2.359375 L 26.53125 -3.65625 L 25.234375 -6.671875 Z M 24.296875 -8.96875 "/></g></g></g><g fill="#092f62" fill-opacity="1"><g transform="translate(67.251878, 75.245345)"><g><path d="M 1.625 -35.4375 L 5.09375 -28.125 L 3.09375 -29.375 L 5.453125 -10.140625 L 5.453125 -2.953125 L 4.625 -0.296875 L 4.28125 -0.296875 L 4.28125 -4.484375 L 3.796875 -8.734375 L 1.203125 -31.140625 L 0.734375 -32.265625 Z M 1.625 -35.4375 "/></g></g></g><g fill="#092f62" fill-opacity="1"><g transform="translate(73.580503, 75.245345)"><g><path d="M 16.578125 -4.953125 L 17.390625 -5.1875 L 18.578125 -5.484375 L 20.28125 -5.484375 L 21.046875 -5.359375 L 21.9375 -5.125 L 22.828125 -4.421875 L 23.46875 -3.71875 L 24.53125 -3.25 L 25.125 -3.25 L 25.125 0 L 24 0 L 23.125 -0.234375 L 22.359375 -0.765625 L 21.828125 -1.359375 L 20.875 -2.125 L 20.109375 -2.359375 L 18.40625 -2.359375 L 17.28125 -2.1875 L 16.28125 -1.828125 L 15.28125 -1.296875 L 13.921875 -0.359375 L 12.921875 0.46875 L 11.859375 1.46875 L 10.90625 2.296875 L 10.03125 3.125 L 8.78125 4.25 L 6.484375 6.546875 L 5.609375 7.484375 L 4.3125 8.609375 L 3.25 9.375 L 1.953125 10.140625 L 0.65625 10.4375 L -0.703125 10.328125 L -1.765625 9.84375 L -2.65625 9.078125 L -3.296875 8.140625 L -3.828125 6.375 L -3.828125 4.71875 L -3.59375 3.0625 L -3.1875 1.421875 L -2.765625 0.359375 L -2.0625 -1.125 L -1.421875 -2.234375 L -0.59375 -3.53125 L -0.0625 -2.890625 L -0.890625 -1.171875 L -1.46875 0 L -1.953125 1.0625 L -2.1875 1.953125 L -2.53125 3.125 L -2.71875 4.015625 L -2.71875 6.25 L -2.421875 7.078125 L -1.765625 7.78125 L -0.828125 7.96875 L 0.234375 7.78125 L 1.0625 7.4375 L 1.890625 7.015625 L 2.828125 6.421875 L 3.59375 5.890625 L 4.3125 5.421875 L 5.1875 4.59375 L 5.953125 3.890625 L 10.203125 -0.359375 L 11.859375 -1.890625 L 12.796875 -2.71875 L 13.796875 -3.484375 L 14.75 -4.0625 L 15.5625 -4.546875 Z M 16.578125 -4.953125 "/></g></g></g><g fill="#092f62" fill-opacity="1"><g transform="translate(98.276197, 75.245345)"><g><path d="M 5.78125 -18.171875 L 4.84375 -15.03125 L 0.9375 -17.046875 L 1.890625 -20.28125 Z M 9.796875 -20.515625 L 8.84375 -17.390625 L 5.078125 -19.40625 L 6.015625 -22.640625 Z M 6.484375 -5.015625 L 7.4375 -5.609375 L 8.140625 -6.25 L 8.734375 -7.015625 L 8.734375 -7.78125 L 8.5 -8.3125 L 8.140625 -8.96875 L 7.609375 -9.4375 L 6.84375 -9.4375 L 6.25 -8.90625 L 5.65625 -8.203125 L 5.1875 -7.484375 L 5.125 -6.78125 L 5.546875 -6.015625 L 6.078125 -5.359375 Z M 12.15625 -3.1875 L 12.15625 0 L 11.203125 0 L 9.90625 -0.125 L 8.609375 -0.40625 L 7.484375 -0.890625 L 6.546875 -1.53125 L 5.953125 -2.125 L 4.84375 -1.296875 L 3.78125 -0.703125 L 2.359375 -0.171875 L 1.0625 0 L 0 0 L 0 -3.1875 L 1.703125 -3.1875 L 3.0625 -3.296875 L 4.125 -3.59375 L 4.59375 -4.125 L 4.421875 -4.71875 L 4.25 -5.421875 L 4.25 -7.375 L 4.59375 -9.015625 L 5.1875 -10.328125 L 5.78125 -11.203125 L 6.421875 -11.859375 L 7.3125 -12.328125 L 8.3125 -12.265625 L 9.015625 -11.5625 L 9.375 -10.84375 L 9.671875 -9.671875 L 9.734375 -7.78125 L 9.609375 -6.1875 L 9.203125 -5.125 L 8.78125 -4.484375 L 8.25 -3.953125 L 9.265625 -3.296875 L 10.375 -3.1875 Z M 12.15625 -3.1875 "/></g></g></g><g fill="#092f62" fill-opacity="1"><g transform="translate(109.999964, 75.245345)"><g><path d="M 2.53125 -36.03125 L 6.015625 -28.71875 L 4.015625 -29.953125 L 6.375 -10.734375 L 6.375 -5.3125 L 6.015625 -3.53125 L 5.078125 -2.125 L 4.125 -1.125 L 3.421875 -0.65625 L 2.234375 -0.234375 L 1.0625 0 L 0 0 L 0 -3.25 L 2.59375 -3.25 L 3.65625 -3.53125 L 4.59375 -4.25 L 5.078125 -5.3125 L 4.71875 -9.3125 L 2.125 -31.734375 L 1.65625 -32.84375 Z M 2.53125 -36.03125 "/></g></g></g><g fill="#092f62" fill-opacity="1"><g transform="translate(117.360446, 75.245345)"><g><path d="M 1.625 -35.4375 L 5.09375 -28.125 L 3.09375 -29.375 L 5.453125 -10.140625 L 5.453125 -2.953125 L 4.625 -0.296875 L 4.28125 -0.296875 L 4.28125 -4.484375 L 3.796875 -8.734375 L 1.203125 -31.140625 L 0.734375 -32.265625 Z M 1.625 -35.4375 "/></g></g></g><g fill="#092f62" fill-opacity="1"><g transform="translate(123.689073, 75.245345)"><g/></g></g><g fill="#092f62" fill-opacity="1"><g transform="translate(132.346747, 75.245345)"><g><path d="M 25.0625 -3.25 L 25.0625 0 L 24.421875 0 L 22.828125 -0.171875 L 21.296875 -1 L 20.28125 -2 L 19.578125 -3.125 L 18.9375 -4.65625 L 18.453125 -6.015625 L 18.171875 -7.1875 L 17.875 -8.84375 L 17.453125 -7.671875 L 16.6875 -6.25 L 15.6875 -5.078125 L 14.796875 -4.125 L 13.734375 -3.125 L 12.859375 -2.421875 L 11.90625 -1.703125 L 10.96875 -1 L 9.609375 -0.125 L 7.90625 0.828125 L 6.71875 1.359375 L 5.359375 1.890625 L 3.953125 2.125 L 2.53125 2.125 L 1.53125 1.765625 L 0.828125 1 L 0.296875 0.125 L -0.0625 -1.53125 L -0.0625 -3.828125 L 0.171875 -5.484375 L 0.703125 -7.25 L 1.421875 -8.90625 L 2.125 -10.328125 L 2.890625 -11.734375 L 3.71875 -12.921875 L 3.78125 -12.265625 L 2.71875 -10.203125 L 1.703125 -7.78125 L 1.125 -6.1875 L 0.9375 -5.015625 L 0.9375 -2.71875 L 1.46875 -1.765625 L 2.1875 -1.296875 L 3 -1.0625 L 4.65625 -1.0625 L 5.546875 -1.359375 L 6.78125 -1.890625 L 8.5 -2.765625 L 9.671875 -3.421875 L 10.796875 -4.1875 L 11.796875 -4.953125 L 12.96875 -5.84375 L 13.859375 -6.609375 L 15.625 -8.375 L 16.046875 -8.96875 L 16.6875 -9.90625 L 17.109375 -10.609375 L 17.34375 -11.328125 L 17.21875 -12.390625 L 16.8125 -13.796875 L 16.15625 -15.5625 L 15.6875 -17.109375 L 15.03125 -18.9375 L 14.453125 -20.515625 L 14.03125 -21.765625 L 13.453125 -23.125 L 13.984375 -26.65625 L 15.03125 -25.1875 L 15.859375 -23.171875 L 16.6875 -21.046875 L 17.390625 -18.9375 L 17.984375 -16.921875 L 18.578125 -14.921875 L 19.046875 -12.859375 L 19.640625 -9.375 L 20.046875 -7.484375 L 20.578125 -6.015625 L 21.171875 -5.015625 L 21.9375 -4.1875 L 22.53125 -3.78125 L 23.296875 -3.421875 L 24.234375 -3.25 Z M 25.0625 -3.25 "/></g></g></g><g fill="#092f62" fill-opacity="1"><g transform="translate(156.983483, 75.245345)"><g><path d="M 5.78125 -18.171875 L 4.84375 -15.03125 L 0.9375 -17.046875 L 1.890625 -20.28125 Z M 9.796875 -20.515625 L 8.84375 -17.390625 L 5.078125 -19.40625 L 6.015625 -22.640625 Z M 6.484375 -5.015625 L 7.4375 -5.609375 L 8.140625 -6.25 L 8.734375 -7.015625 L 8.734375 -7.78125 L 8.5 -8.3125 L 8.140625 -8.96875 L 7.609375 -9.4375 L 6.84375 -9.4375 L 6.25 -8.90625 L 5.65625 -8.203125 L 5.1875 -7.484375 L 5.125 -6.78125 L 5.546875 -6.015625 L 6.078125 -5.359375 Z M 12.15625 -3.1875 L 12.15625 0 L 11.203125 0 L 9.90625 -0.125 L 8.609375 -0.40625 L 7.484375 -0.890625 L 6.546875 -1.53125 L 5.953125 -2.125 L 4.84375 -1.296875 L 3.78125 -0.703125 L 2.359375 -0.171875 L 1.0625 0 L 0 0 L 0 -3.1875 L 1.703125 -3.1875 L 3.0625 -3.296875 L 4.125 -3.59375 L 4.59375 -4.125 L 4.421875 -4.71875 L 4.25 -5.421875 L 4.25 -7.375 L 4.59375 -9.015625 L 5.1875 -10.328125 L 5.78125 -11.203125 L 6.421875 -11.859375 L 7.3125 -12.328125 L 8.3125 -12.265625 L 9.015625 -11.5625 L 9.375 -10.84375 L 9.671875 -9.671875 L 9.734375 -7.78125 L 9.609375 -6.1875 L 9.203125 -5.125 L 8.78125 -4.484375 L 8.25 -3.953125 L 9.265625 -3.296875 L 10.375 -3.1875 Z M 12.15625 -3.1875 "/></g></g></g><g fill="#092f62" fill-opacity="1"><g transform="translate(168.70725, 75.245345)"><g><path d="M 8.734375 -2.59375 L 7.609375 -2 L 6.546875 -1.53125 L 5.609375 -1.171875 L 4.546875 -0.765625 L 3.421875 -0.40625 L 2.1875 -0.125 L 0.65625 0 L 0 0 L 0 -3.1875 L 1.65625 -3.1875 L 3.59375 -3.296875 L 4.953125 -3.59375 L 5.78125 -3.828125 L 6.375 -4.125 L 4.890625 -5.1875 L 3.78125 -6.1875 L 3.0625 -6.953125 L 2.296875 -8.015625 L 1.765625 -9.265625 L 1.59375 -10.203125 L 1.59375 -11.140625 L 1.828125 -12.5 L 2.1875 -13.390625 L 2.65625 -14.328125 L 3.296875 -15.15625 L 4.359375 -16.15625 L 5.3125 -16.625 L 6.25 -16.921875 L 7.1875 -17.046875 L 8.84375 -17.046875 L 9.796875 -16.984375 L 10.96875 -16.625 L 12.328125 -16.046875 L 13.203125 -15.390625 L 13.734375 -14.921875 L 13.734375 -14.515625 L 12.859375 -14.515625 L 12.15625 -14.75 L 11.328125 -14.859375 L 9.078125 -14.859375 L 7.84375 -14.6875 L 6.421875 -14.453125 L 5.1875 -14.09375 L 4.0625 -13.625 L 3.125 -12.96875 L 2.828125 -12.5625 L 2.828125 -11.4375 L 3.1875 -10.734375 L 3.828125 -9.90625 L 4.65625 -9.015625 L 5.546875 -8.203125 L 6.671875 -7.4375 L 7.84375 -6.84375 L 8.78125 -6.421875 L 9.796875 -6.140625 L 10.609375 -6.140625 L 11.375 -6.421875 L 12.03125 -6.78125 L 12.671875 -7.140625 L 13.796875 -7.671875 L 15.28125 -8.375 L 16.578125 -9.015625 L 17.75 -9.671875 L 18.8125 -10.265625 L 19.640625 -10.734375 L 18.9375 -9.203125 L 18.34375 -8.140625 L 18.109375 -7.671875 L 17.578125 -7.3125 L 16.28125 -6.609375 L 15.03125 -5.953125 L 13.6875 -5.1875 L 12.03125 -4.3125 L 10.5625 -3.53125 Z M 8.734375 -2.59375 "/></g></g></g><g fill="#092f62" fill-opacity="1"><g transform="translate(188.567948, 75.245345)"><g/></g></g><g fill="#092f62" fill-opacity="1"><g transform="translate(197.225614, 75.245345)"><g><path d="M 16.625 -4.65625 L 17.453125 -4.890625 L 18.640625 -5.1875 L 20.34375 -5.1875 L 21.109375 -5.078125 L 22 -4.84375 L 22.875 -4.125 L 23.359375 -3.0625 L 23.359375 -2 L 23.0625 -0.765625 L 22.703125 -0.125 L 22.40625 -0.46875 L 21.875 -1.0625 L 20.9375 -1.828125 L 20.171875 -2.0625 L 18.453125 -2.0625 L 17.34375 -1.890625 L 16.34375 -1.53125 L 15.328125 -1 L 13.984375 -0.0625 L 12.96875 0.765625 L 11.90625 1.765625 L 10.96875 2.59375 L 10.078125 3.421875 L 8.84375 4.546875 L 6.546875 6.84375 L 5.65625 7.78125 L 4.359375 8.90625 L 3.296875 9.671875 L 2 10.4375 L 0.703125 10.734375 L -0.65625 10.609375 L -1.703125 10.140625 L -2.59375 9.375 L -3.25 8.4375 L -3.78125 6.671875 L -3.78125 4.84375 L -3.53125 3.359375 L -3.125 1.703125 L -2.71875 0.65625 L -2 -0.828125 L -1.359375 -1.953125 L -0.53125 -3.25 L 0 -2.59375 L -0.828125 -0.890625 L -1.421875 0.296875 L -1.890625 1.359375 L -2.125 2.234375 L -2.484375 3.421875 L -2.65625 4.3125 L -2.65625 6.546875 L -2.359375 7.375 L -1.703125 8.078125 L -0.765625 8.25 L 0.296875 8.078125 L 1.125 7.71875 L 1.953125 7.3125 L 2.890625 6.71875 L 3.65625 6.1875 L 4.359375 5.71875 L 5.25 4.890625 L 6.015625 4.1875 L 10.265625 -0.0625 L 11.09375 -0.828125 L 11.90625 -1.59375 L 12.859375 -2.421875 L 13.859375 -3.1875 L 14.796875 -3.78125 L 15.625 -4.25 Z M 16.625 -4.65625 "/></g></g></g><g fill="#092f62" fill-opacity="1"><g transform="translate(220.918937, 75.245345)"><g><path d="M 19.9375 -2.765625 L 19.171875 -3.59375 L 18.453125 -4.1875 L 17.6875 -4.25 L 16.8125 -4.015625 L 16.390625 -3.421875 L 16.578125 -3 L 17.046875 -2.765625 Z M 14.625 -1.46875 L 14.625 -3.953125 L 14.796875 -4.65625 L 15.15625 -5.359375 L 15.625 -5.953125 L 16.28125 -6.671875 L 17.109375 -7.140625 L 18.046875 -7.3125 L 19.21875 -7.140625 L 20.109375 -6.546875 L 20.9375 -5.78125 L 21.875 -4.78125 L 22.640625 -3.71875 L 23 -2.765625 L 25.484375 -2.765625 L 25.484375 0 L 23.890625 0 L 23.890625 1.0625 L 23.65625 2.828125 L 23.234375 4.65625 L 22.109375 6.1875 L 21 7.3125 L 19.703125 8.609375 L 18.171875 9.734375 L 16.625 10.96875 L 15.390625 11.859375 L 13.984375 12.734375 L 12.328125 13.5625 L 10.671875 14.328125 L 9.265625 14.859375 L 7.84375 15.15625 L 6.1875 15.328125 L 4.65625 15.328125 L 3.1875 15.21875 L 2.1875 14.796875 L 1.296875 14.328125 L 0.125 13.265625 L -1.0625 11.796875 L -1.953125 9.96875 L -2.234375 8.3125 L -2.296875 7.546875 L -2.421875 6.421875 L -2.421875 5.546875 L -2.234375 3.25 L -2 1.59375 L -1.59375 0.234375 L -1.125 -0.46875 L -0.65625 -0.40625 L -1 0.171875 L -1.359375 1.359375 L -1.59375 2.828125 L -1.703125 3.890625 L -1.703125 6.421875 L -1.46875 7.546875 L -0.828125 8.78125 L 0.0625 9.96875 L 0.828125 10.671875 L 1.828125 11.328125 L 3.0625 11.796875 L 3.953125 12.09375 L 4.71875 12.203125 L 6.671875 12.203125 L 7.78125 12.03125 L 9.265625 11.5625 L 11.328125 10.734375 L 13.15625 9.90625 L 14.6875 9.015625 L 16.21875 8.015625 L 17.515625 7.140625 L 19.640625 5.484375 L 21.109375 4.25 L 22.765625 2.53125 L 22.765625 1.46875 L 22.59375 0.59375 L 22.234375 0.0625 L 17.109375 0.0625 L 15.984375 -0.125 L 15.03125 -0.59375 Z M 14.625 -1.46875 "/></g></g></g><g fill="#092f62" fill-opacity="1"><g transform="translate(245.968407, 75.245345)"><g><path d="M 9.96875 -22.640625 L 13.15625 -21.046875 L 12.328125 -17.8125 L 9.265625 -19.40625 Z M 10.4375 -4.59375 L 11.328125 -4.1875 L 14.03125 -4.1875 L 15.21875 -4.421875 L 17.046875 -4.890625 L 18.40625 -5.3125 L 19.875 -5.84375 L 20.9375 -6.3125 L 22.296875 -7.015625 L 23.46875 -7.78125 L 23.59375 -8.375 L 22.46875 -9.546875 L 21.46875 -10.5 L 20.109375 -11.4375 L 18.34375 -11.734375 L 16.921875 -11.5 L 15.6875 -10.90625 L 14.328125 -9.84375 L 13.625 -9.015625 L 12.5625 -7.484375 L 11.625 -6.25 Z M 4.125 -1.359375 L 3.71875 -1 L 2.1875 -0.296875 L 1.0625 0 L 0 0 L 0 -3.25 L 1.703125 -3.25 L 2.953125 -3.421875 L 4.0625 -3.953125 L 4.890625 -4.71875 L 5.953125 -6.140625 L 7.484375 -8.4375 L 7.71875 -6.375 L 8.3125 -5.546875 L 9.015625 -5.015625 L 9.90625 -6.671875 L 10.609375 -7.84375 L 11.375 -9.203125 L 12.390625 -10.734375 L 13.328125 -11.96875 L 14.390625 -12.96875 L 15.328125 -13.734375 L 16.75 -14.5625 L 18.28125 -14.859375 L 19.578125 -14.859375 C 19.679688 -14.835938 19.867188 -14.785156 20.140625 -14.703125 C 20.410156 -14.628906 20.59375 -14.582031 20.6875 -14.5625 C 20.789062 -14.539062 20.929688 -14.539062 21.109375 -14.5625 L 22.640625 -13.6875 L 23.828125 -12.625 L 24.765625 -11.328125 L 25 -9.671875 L 24.890625 -7.609375 L 24 -5.84375 L 22.875 -4.71875 L 20 -3.296875 L 26.015625 -3.296875 L 26.015625 0 L 17.640625 0 L 15.625 -0.234375 L 14.328125 -0.46875 L 13.15625 -0.703125 L 11.328125 -1.0625 L 9.671875 -1.359375 L 8.78125 -1.765625 L 8.5 -1 L 7.96875 0.59375 L 7.90625 -1.296875 L 8.078125 -2.234375 L 7.484375 -2.765625 L 7.015625 -3.71875 L 6.671875 -4.421875 L 5.484375 -2.765625 L 4.78125 -1.890625 Z M 4.125 -1.359375 "/></g></g></g><g fill="#092f62" fill-opacity="1"><g transform="translate(271.548556, 75.245345)"><g><path d="M 1.46875 -7.71875 L 1.46875 -8.375 L 1.890625 -9.4375 L 2.765625 -10.375 L 4.015625 -10.96875 L 5.546875 -11.203125 L 6.84375 -11.09375 L 8.546875 -10.5625 L 10.96875 -9.734375 L 14.390625 -8.734375 L 18.40625 -8.015625 L 20.875 -7.671875 L 23.0625 -7.4375 L 22.234375 -4.484375 L 21.53125 -4.59375 L 20.765625 -4.71875 L 20.234375 -4.421875 L 20.28125 -3.65625 L 20.765625 -3.25 L 21.578125 -3.1875 L 23.9375 -3.1875 L 23.9375 0 L 22.53125 0 L 21.46875 -0.0625 L 20.34375 -0.296875 L 19.640625 -0.890625 L 19.34375 -2.1875 L 19.46875 -3.59375 L 19.703125 -4.78125 L 18.28125 -4.71875 L 16.625 -4.546875 L 15.15625 -4.125 L 11.328125 -2.953125 L 9.671875 -2.359375 L 7.71875 -1.703125 L 6.1875 -1.125 L 4.890625 -0.703125 L 2.71875 -0.171875 L 0.59375 0 L 0 0 L 0 -3.1875 L 1.46875 -3.1875 L 3.1875 -3.359375 L 6.25 -4.015625 L 8.5 -4.71875 L 10.265625 -5.3125 L 11.671875 -5.78125 L 12.5625 -5.890625 L 12.03125 -6.140625 L 11.03125 -6.421875 L 9.84375 -6.71875 L 8.546875 -7.1875 L 7.609375 -7.484375 L 6.90625 -7.71875 L 6.421875 -7.484375 L 6.375 -7.078125 L 4.0625 -7.375 Z M 1.46875 -7.71875 "/></g></g></g><g fill="#092f62" fill-opacity="1"><g transform="translate(295.06498, 75.245345)"><g><path d="M 2.53125 -36.03125 L 6.015625 -28.71875 L 4.015625 -29.953125 L 6.375 -10.734375 L 6.375 -5.3125 L 6.015625 -3.53125 L 5.078125 -2.125 L 4.125 -1.125 L 3.421875 -0.65625 L 2.234375 -0.234375 L 1.0625 0 L 0 0 L 0 -3.25 L 2.59375 -3.25 L 3.65625 -3.53125 L 4.59375 -4.25 L 5.078125 -5.3125 L 4.71875 -9.3125 L 2.125 -31.734375 L 1.65625 -32.84375 Z M 2.53125 -36.03125 "/></g></g></g><g fill="#092f62" fill-opacity="1"><g transform="translate(302.425453, 75.245345)"><g/></g></g><g fill="#092f62" fill-opacity="1"><g transform="translate(311.083119, 75.245345)"><g><path d="M 32.03125 -3.125 L 32.03125 0 L 29.953125 0 L 30.203125 1.171875 L 30.203125 2.65625 L 29.84375 3.484375 L 29.3125 4.359375 L 28.890625 4.84375 L 27.890625 5.359375 L 27.015625 5.359375 L 25.71875 4.890625 L 24.703125 4.015625 L 23.9375 3.125 L 23.46875 2.296875 L 23.0625 1.296875 L 22.765625 0.40625 L 22.46875 -0.828125 L 22.0625 -0.0625 L 21.578125 0.890625 L 20.9375 2.125 L 20.234375 3.296875 L 19.21875 4.71875 L 18.40625 5.609375 L 17.578125 6.3125 L 15.09375 8.078125 L 13.265625 9.203125 L 10.84375 10.5625 L 8.84375 11.625 L 7.140625 12.5 L 5.421875 13.328125 L 3.828125 13.796875 L 2 14.265625 L 0.0625 14.75 L -1.296875 15.03125 L -2.828125 15.390625 L -4.84375 15.6875 L -5.3125 15.75 L -3 14.328125 L -0.296875 12.921875 L 2.71875 11.4375 L 4.953125 10.4375 L 7.84375 9.078125 L 9.96875 7.96875 L 12.390625 6.609375 L 14.328125 5.484375 L 16.34375 4.1875 L 17.921875 3.125 L 18.875 2.359375 L 19.640625 1.53125 L 20.234375 0.65625 L 20.8125 -0.296875 L 21.296875 -1.0625 L 21.703125 -1.890625 L 22.234375 -2.890625 L 22.59375 -3.421875 L 23 -3.953125 L 23.765625 -3.890625 L 24.0625 -4.890625 L 24.1875 -5.546875 L 24.890625 -5.125 L 25.890625 -4.546875 L 26.78125 -4.015625 L 27.71875 -3.484375 L 28.3125 -3.125 Z M 32.03125 -3.125 "/></g></g></g><g fill="#092f62" fill-opacity="1"><g transform="translate(342.67751, 75.245345)"><g><path d="M 12.625 -4.78125 L 12.09375 -4.0625 L 11.09375 -3.1875 L 9.90625 -2.359375 L 8.84375 -1.703125 L 7.671875 -1.0625 L 6.421875 -0.53125 L 5.359375 -0.171875 L 4.0625 0 L 0 0 L 0 -3.1875 L 4.890625 -3.1875 L 6.1875 -3.484375 L 7.546875 -4.015625 L 8.734375 -4.65625 L 9.796875 -5.3125 L 10.84375 -5.890625 L 11.96875 -6.609375 L 12.796875 -7.3125 L 13.15625 -7.671875 L 13.15625 -8.4375 L 12.5 -8.96875 L 11.09375 -10.203125 L 9.671875 -11.375 L 8.015625 -12.671875 L 6.71875 -13.6875 L 5.421875 -14.75 L 4.015625 -15.859375 L 2.890625 -16.8125 L 1.65625 -17.8125 L 0.53125 -18.75 L -0.59375 -19.75 L -1.65625 -21 L -1.953125 -21.703125 L -2.359375 -22 L -2.359375 -24.53125 L -2.0625 -25.53125 L -1.65625 -26.65625 L -1 -27.59375 L 0.359375 -28.609375 L 1.703125 -29.421875 L 3.1875 -30.3125 L 5.484375 -31.4375 L 6.90625 -32.140625 L 8.78125 -32.96875 L 10.265625 -33.734375 L 12.03125 -34.4375 L 13.921875 -35.203125 L 15.75 -35.96875 L 17.875 -36.6875 L 19.875 -37.390625 L 21.765625 -37.921875 L 23.9375 -38.515625 L 25.953125 -38.984375 L 27.84375 -39.453125 L 29.375 -39.625 L 31.078125 -39.75 L 32.546875 -39.75 L 33.375 -39.625 L 33.90625 -39.046875 L 34.203125 -38.28125 L 34.203125 -37.265625 L 33.796875 -35.5 L 33.203125 -34.203125 L 32.5 -33.03125 L 31.734375 -31.78125 L 30.96875 -30.71875 L 29.953125 -29.484375 L 29.140625 -28.484375 L 28.015625 -27.1875 L 27.125 -26.1875 L 27.1875 -27.0625 L 27.78125 -28.25 L 28.609375 -29.671875 L 29.609375 -31.078125 L 30.4375 -32.265625 L 31.25 -33.4375 L 32.078125 -34.734375 L 32.671875 -35.6875 L 32.671875 -36.390625 L 31.84375 -36.859375 L 30.140625 -36.921875 L 28.1875 -36.796875 L 26.25 -36.328125 L 24.125 -35.796875 L 22 -35.15625 L 19.75 -34.4375 L 17.578125 -33.734375 L 15.390625 -33.03125 L 13.859375 -32.5 L 12.03125 -31.734375 L 9.90625 -30.84375 L 8.25 -30.078125 L 6.3125 -29.1875 L 4.84375 -28.421875 L 2.828125 -27.359375 L 1.65625 -26.71875 L 0.359375 -25.953125 L -1 -25 L -1.53125 -24.359375 L 0.0625 -23.296875 L 1.46875 -22.53125 L 2.765625 -21.703125 L 1 -21.640625 L 2.828125 -20.046875 L 4.1875 -18.875 L 5.890625 -17.515625 L 7.609375 -16.28125 L 9.015625 -15.28125 L 10.609375 -14.03125 L 11.859375 -12.859375 L 12.96875 -11.796875 L 13.625 -10.90625 L 13.6875 -8.375 L 13.625 -6.546875 L 14.09375 -5.421875 L 14.75 -4.3125 L 15.515625 -3.59375 L 16.515625 -3.25 L 26.484375 -3.25 L 26.484375 0 L 17.34375 0 L 16.15625 -0.171875 L 15.28125 -0.40625 L 14.390625 -1.0625 L 13.6875 -2 L 13.03125 -3.484375 Z M 12.625 -4.78125 "/></g></g></g><g fill="#092f62" fill-opacity="1"><g transform="translate(368.729349, 75.245345)"><g><path d="M 9.5 -25.1875 L 8.546875 -22.0625 L 4.65625 -24.0625 L 5.609375 -27.3125 Z M 4.890625 -23.46875 L 3.953125 -20.34375 L 0.0625 -22.359375 L 1 -25.59375 Z M 0 0 L 0 -3.25 L 4.015625 -3.25 L 4.953125 -3.296875 L 5.78125 -3.484375 L 7.140625 -3.953125 L 8.203125 -4.421875 L 9.078125 -4.890625 L 9.796875 -5.546875 L 9.796875 -5.890625 L 9.015625 -7.015625 L 8.3125 -7.90625 L 7.140625 -9.375 L 6.25 -10.5625 L 5.421875 -11.796875 L 4.953125 -12.671875 L 4.59375 -13.734375 L 4.1875 -13.921875 L 4.546875 -16.921875 L 7.375 -14.6875 L 8.3125 -13.859375 L 6.78125 -13.859375 L 6.78125 -13.390625 L 7.671875 -12.328125 L 8.734375 -11.140625 L 9.734375 -9.90625 L 10.4375 -8.671875 L 10.671875 -7.78125 L 10.671875 -5.546875 L 10.5 -4.59375 L 10.03125 -3.65625 L 9.265625 -2.65625 L 8.4375 -1.953125 L 7.484375 -1.234375 L 6.546875 -0.703125 L 5.546875 -0.234375 L 3.890625 0 Z M 0 0 "/></g></g></g><g fill="#092f62" fill-opacity="1"><g transform="translate(380.924815, 75.245345)"><g><path d="M 19.9375 -2.765625 L 19.171875 -3.59375 L 18.453125 -4.1875 L 17.6875 -4.25 L 16.8125 -4.015625 L 16.390625 -3.421875 L 16.578125 -3 L 17.046875 -2.765625 Z M 14.625 -1.46875 L 14.625 -3.953125 L 14.796875 -4.65625 L 15.15625 -5.359375 L 15.625 -5.953125 L 16.28125 -6.671875 L 17.109375 -7.140625 L 18.046875 -7.3125 L 19.21875 -7.140625 L 20.109375 -6.546875 L 20.9375 -5.78125 L 21.875 -4.78125 L 22.640625 -3.71875 L 23 -2.765625 L 25.484375 -2.765625 L 25.484375 0 L 23.890625 0 L 23.890625 1.0625 L 23.65625 2.828125 L 23.234375 4.65625 L 22.109375 6.1875 L 21 7.3125 L 19.703125 8.609375 L 18.171875 9.734375 L 16.625 10.96875 L 15.390625 11.859375 L 13.984375 12.734375 L 12.328125 13.5625 L 10.671875 14.328125 L 9.265625 14.859375 L 7.84375 15.15625 L 6.1875 15.328125 L 4.65625 15.328125 L 3.1875 15.21875 L 2.1875 14.796875 L 1.296875 14.328125 L 0.125 13.265625 L -1.0625 11.796875 L -1.953125 9.96875 L -2.234375 8.3125 L -2.296875 7.546875 L -2.421875 6.421875 L -2.421875 5.546875 L -2.234375 3.25 L -2 1.59375 L -1.59375 0.234375 L -1.125 -0.46875 L -0.65625 -0.40625 L -1 0.171875 L -1.359375 1.359375 L -1.59375 2.828125 L -1.703125 3.890625 L -1.703125 6.421875 L -1.46875 7.546875 L -0.828125 8.78125 L 0.0625 9.96875 L 0.828125 10.671875 L 1.828125 11.328125 L 3.0625 11.796875 L 3.953125 12.09375 L 4.71875 12.203125 L 6.671875 12.203125 L 7.78125 12.03125 L 9.265625 11.5625 L 11.328125 10.734375 L 13.15625 9.90625 L 14.6875 9.015625 L 16.21875 8.015625 L 17.515625 7.140625 L 19.640625 5.484375 L 21.109375 4.25 L 22.765625 2.53125 L 22.765625 1.46875 L 22.59375 0.59375 L 22.234375 0.0625 L 17.109375 0.0625 L 15.984375 -0.125 L 15.03125 -0.59375 Z M 14.625 -1.46875 "/></g></g></g><g fill="#092f62" fill-opacity="1"><g transform="translate(405.974302, 75.245345)"><g><path d="M 8.734375 -2.59375 L 7.609375 -2 L 6.546875 -1.53125 L 5.609375 -1.171875 L 4.546875 -0.765625 L 3.421875 -0.40625 L 2.1875 -0.125 L 0.65625 0 L 0 0 L 0 -3.1875 L 1.65625 -3.1875 L 3.59375 -3.296875 L 4.953125 -3.59375 L 5.78125 -3.828125 L 6.375 -4.125 L 4.890625 -5.1875 L 3.78125 -6.1875 L 3.0625 -6.953125 L 2.296875 -8.015625 L 1.765625 -9.265625 L 1.59375 -10.203125 L 1.59375 -11.140625 L 1.828125 -12.5 L 2.1875 -13.390625 L 2.65625 -14.328125 L 3.296875 -15.15625 L 4.359375 -16.15625 L 5.3125 -16.625 L 6.25 -16.921875 L 7.1875 -17.046875 L 8.84375 -17.046875 L 9.796875 -16.984375 L 10.96875 -16.625 L 12.328125 -16.046875 L 13.203125 -15.390625 L 13.734375 -14.921875 L 13.734375 -14.515625 L 12.859375 -14.515625 L 12.15625 -14.75 L 11.328125 -14.859375 L 9.078125 -14.859375 L 7.84375 -14.6875 L 6.421875 -14.453125 L 5.1875 -14.09375 L 4.0625 -13.625 L 3.125 -12.96875 L 2.828125 -12.5625 L 2.828125 -11.4375 L 3.1875 -10.734375 L 3.828125 -9.90625 L 4.65625 -9.015625 L 5.546875 -8.203125 L 6.671875 -7.4375 L 7.84375 -6.84375 L 8.78125 -6.421875 L 9.796875 -6.140625 L 10.609375 -6.140625 L 11.375 -6.421875 L 12.03125 -6.78125 L 12.671875 -7.140625 L 13.796875 -7.671875 L 15.28125 -8.375 L 16.578125 -9.015625 L 17.75 -9.671875 L 18.8125 -10.265625 L 19.640625 -10.734375 L 18.9375 -9.203125 L 18.34375 -8.140625 L 18.109375 -7.671875 L 17.578125 -7.3125 L 16.28125 -6.609375 L 15.03125 -5.953125 L 13.6875 -5.1875 L 12.03125 -4.3125 L 10.5625 -3.53125 Z M 8.734375 -2.59375 "/></g></g></g><g fill="#092f62" fill-opacity="1"><g transform="translate(425.835017, 75.245345)"><g><path d="M 25.0625 -3.25 L 25.0625 0 L 24.421875 0 L 22.828125 -0.171875 L 21.296875 -1 L 20.28125 -2 L 19.578125 -3.125 L 18.9375 -4.65625 L 18.453125 -6.015625 L 18.171875 -7.1875 L 17.875 -8.84375 L 17.453125 -7.671875 L 16.6875 -6.25 L 15.6875 -5.078125 L 14.796875 -4.125 L 13.734375 -3.125 L 12.859375 -2.421875 L 11.90625 -1.703125 L 10.96875 -1 L 9.609375 -0.125 L 7.90625 0.828125 L 6.71875 1.359375 L 5.359375 1.890625 L 3.953125 2.125 L 2.53125 2.125 L 1.53125 1.765625 L 0.828125 1 L 0.296875 0.125 L -0.0625 -1.53125 L -0.0625 -3.828125 L 0.171875 -5.484375 L 0.703125 -7.25 L 1.421875 -8.90625 L 2.125 -10.328125 L 2.890625 -11.734375 L 3.71875 -12.921875 L 3.78125 -12.265625 L 2.71875 -10.203125 L 1.703125 -7.78125 L 1.125 -6.1875 L 0.9375 -5.015625 L 0.9375 -2.71875 L 1.46875 -1.765625 L 2.1875 -1.296875 L 3 -1.0625 L 4.65625 -1.0625 L 5.546875 -1.359375 L 6.78125 -1.890625 L 8.5 -2.765625 L 9.671875 -3.421875 L 10.796875 -4.1875 L 11.796875 -4.953125 L 12.96875 -5.84375 L 13.859375 -6.609375 L 15.625 -8.375 L 16.046875 -8.96875 L 16.6875 -9.90625 L 17.109375 -10.609375 L 17.34375 -11.328125 L 17.21875 -12.390625 L 16.8125 -13.796875 L 16.15625 -15.5625 L 15.6875 -17.109375 L 15.03125 -18.9375 L 14.453125 -20.515625 L 14.03125 -21.765625 L 13.453125 -23.125 L 13.984375 -26.65625 L 15.03125 -25.1875 L 15.859375 -23.171875 L 16.6875 -21.046875 L 17.390625 -18.9375 L 17.984375 -16.921875 L 18.578125 -14.921875 L 19.046875 -12.859375 L 19.640625 -9.375 L 20.046875 -7.484375 L 20.578125 -6.015625 L 21.171875 -5.015625 L 21.9375 -4.1875 L 22.53125 -3.78125 L 23.296875 -3.421875 L 24.234375 -3.25 Z M 25.0625 -3.25 "/></g></g></g><g fill="#092f62" fill-opacity="1"><g transform="translate(450.471736, 75.245345)"><g><path d="M 0 0 L 0 -3.25 L 4.015625 -3.25 L 4.953125 -3.296875 L 5.78125 -3.484375 L 7.140625 -3.953125 L 8.203125 -4.421875 L 9.078125 -4.890625 L 9.796875 -5.546875 L 9.796875 -5.890625 L 9.015625 -7.015625 L 8.3125 -7.90625 L 7.140625 -9.375 L 6.25 -10.5625 L 5.421875 -11.796875 L 4.953125 -12.671875 L 4.59375 -13.734375 L 4.1875 -13.921875 L 4.546875 -16.921875 L 7.375 -14.6875 L 8.3125 -13.859375 L 6.78125 -13.859375 L 6.78125 -13.390625 L 7.671875 -12.328125 L 8.734375 -11.140625 L 9.734375 -9.90625 L 10.4375 -8.671875 L 10.671875 -7.78125 L 10.671875 -5.546875 L 10.5 -4.59375 L 10.03125 -3.65625 L 9.265625 -2.65625 L 8.4375 -1.953125 L 7.484375 -1.234375 L 6.546875 -0.703125 L 5.546875 -0.234375 L 3.890625 0 Z M 10.671875 5.890625 L 9.734375 9.015625 L 5.84375 7.015625 L 6.78125 3.78125 Z M 10.671875 5.890625 "/></g></g></g><g fill="#092f62" fill-opacity="1"><g transform="translate(462.018613, 75.245345)"><g/></g></g><g fill="#092f62" fill-opacity="1"><g transform="translate(470.676279, 75.245345)"><g><path d="M 21.90625 -26.296875 L 25.03125 -24.703125 L 24.203125 -21.46875 L 21.203125 -23.0625 Z M 27.453125 -12.5 L 26.390625 -13.5 L 25.6875 -13.984375 L 24.6875 -13.984375 L 24.03125 -13.6875 L 23.859375 -13.09375 L 24.203125 -12.671875 L 24.6875 -12.5 Z M 22.265625 -11.4375 L 22.265625 -12.5625 L 22.4375 -13.6875 L 22.734375 -14.6875 L 23.140625 -15.515625 L 23.796875 -16.28125 L 24.625 -16.75 L 25.453125 -16.859375 L 26.75 -16.8125 L 27.625 -16.21875 L 28.453125 -15.453125 L 29.40625 -14.453125 L 30.109375 -13.15625 L 30.75 -11.5 L 31.109375 -10.265625 L 31.109375 -8.96875 L 30.75 -7.078125 L 30.34375 -6.015625 L 29.640625 -5.078125 L 28.6875 -4.3125 L 27.75 -3.65625 L 26.390625 -2.828125 L 25.328125 -2.296875 L 24.15625 -1.703125 L 22.90625 -1.171875 L 21.5 -0.65625 L 19.84375 -0.0625 L 18.1875 0.46875 L 16.78125 0.890625 L 15.359375 1.234375 L 13.71875 1.59375 L 11.59375 1.953125 L 9.046875 2 L 7.75 1.890625 L 6.15625 1.65625 L 4.8125 1.171875 L 3.265625 0.234375 L 2.265625 -0.765625 L 1.625 -1.65625 L 1.09375 -2.765625 L 0.796875 -4.0625 L 0.5625 -5.84375 L 0.5625 -6.84375 L 0.796875 -8.375 L 1.203125 -9.734375 L 1.625 -10.734375 L 1.96875 -10.734375 L 1.96875 -9.796875 L 1.625 -8.96875 L 1.5625 -6.671875 L 1.796875 -6.078125 L 2.21875 -4.953125 L 3.03125 -3.71875 L 3.921875 -2.828125 L 4.75 -2.296875 L 6.40625 -1.59375 L 7.8125 -1.125 L 9.8125 -1.125 L 11.46875 -1.171875 L 12.828125 -1.296875 L 14.484375 -1.65625 L 16.3125 -2 L 17.78125 -2.421875 L 19.4375 -2.953125 L 20.671875 -3.359375 L 23.734375 -4.546875 L 25.03125 -5.078125 L 26.09375 -5.546875 L 27.15625 -6.078125 L 28.625 -6.84375 L 30.046875 -7.78125 L 30.046875 -8.3125 L 29.6875 -8.78125 L 28.921875 -9.3125 L 28.109375 -9.671875 L 24.09375 -9.671875 L 23.328125 -9.90625 L 22.671875 -10.375 Z M 22.265625 -11.4375 "/></g></g></g><g fill="#092f62" fill-opacity="1"><g transform="translate(502.270687, 75.245345)"><g><path d="M 16.578125 -4.953125 L 17.390625 -5.1875 L 18.578125 -5.484375 L 20.28125 -5.484375 L 21.046875 -5.359375 L 21.9375 -5.125 L 22.828125 -4.421875 L 23.46875 -3.71875 L 24.53125 -3.25 L 25.125 -3.25 L 25.125 0 L 24 0 L 23.125 -0.234375 L 22.359375 -0.765625 L 21.828125 -1.359375 L 20.875 -2.125 L 20.109375 -2.359375 L 18.40625 -2.359375 L 17.28125 -2.1875 L 16.28125 -1.828125 L 15.28125 -1.296875 L 13.921875 -0.359375 L 12.921875 0.46875 L 11.859375 1.46875 L 10.90625 2.296875 L 10.03125 3.125 L 8.78125 4.25 L 6.484375 6.546875 L 5.609375 7.484375 L 4.3125 8.609375 L 3.25 9.375 L 1.953125 10.140625 L 0.65625 10.4375 L -0.703125 10.328125 L -1.765625 9.84375 L -2.65625 9.078125 L -3.296875 8.140625 L -3.828125 6.375 L -3.828125 4.71875 L -3.59375 3.0625 L -3.1875 1.421875 L -2.765625 0.359375 L -2.0625 -1.125 L -1.421875 -2.234375 L -0.59375 -3.53125 L -0.0625 -2.890625 L -0.890625 -1.171875 L -1.46875 0 L -1.953125 1.0625 L -2.1875 1.953125 L -2.53125 3.125 L -2.71875 4.015625 L -2.71875 6.25 L -2.421875 7.078125 L -1.765625 7.78125 L -0.828125 7.96875 L 0.234375 7.78125 L 1.0625 7.4375 L 1.890625 7.015625 L 2.828125 6.421875 L 3.59375 5.890625 L 4.3125 5.421875 L 5.1875 4.59375 L 5.953125 3.890625 L 10.203125 -0.359375 L 11.859375 -1.890625 L 12.796875 -2.71875 L 13.796875 -3.484375 L 14.75 -4.0625 L 15.5625 -4.546875 Z M 16.578125 -4.953125 "/></g></g></g><g fill="#092f62" fill-opacity="1"><g transform="translate(526.966378, 75.245345)"><g><path d="M 9.546875 1.421875 L 9.078125 1.171875 L 8.375 0.828125 L 7.671875 0.0625 L 7.3125 -0.9375 L 7.078125 -1.890625 L 7.078125 -2.828125 L 5.78125 -1.890625 L 3.53125 -0.765625 L 2.484375 -0.40625 L 1.0625 -0.03125 L 0 0 L 0 -3.1875 L 1.0625 -3.21875 L 3.0625 -3.53125 L 4.84375 -4.125 L 6.71875 -4.953125 L 8.84375 -6.015625 L 8.375 -5.25 L 8.375 -3.78125 L 8.84375 -2.890625 L 9.375 -2.359375 L 10.03125 -1.828125 L 11.09375 -1.828125 L 12.03125 -1.890625 L 12.734375 -2.0625 L 13.859375 -2.71875 L 14.75 -3.53125 L 15.28125 -4.359375 L 16.28125 -5.65625 L 17.109375 -6.140625 L 16.578125 -4.84375 L 16.6875 -4.0625 L 17.34375 -3.125 L 18.046875 -2.65625 L 19.171875 -2.65625 L 19.9375 -3.0625 L 20.765625 -3.828125 L 21.34375 -4.84375 L 22.828125 -6.953125 L 23 -5.484375 L 23.46875 -4.484375 L 24.53125 -3.59375 L 26.296875 -3.1875 L 27.25 -3.1875 L 27.25 0 L 25.953125 0 L 24.65625 -0.234375 L 23.125 -0.828125 L 22.296875 -1.65625 L 21.703125 -3.296875 L 21.046875 -1.65625 L 20.046875 -0.40625 L 19.40625 0.0625 L 18.515625 0.40625 L 17.34375 0.40625 L 16.21875 -0.171875 L 15.453125 -1.765625 L 14.796875 -0.890625 L 13.625 0.296875 L 12.5 1.0625 L 11.5 1.359375 L 10.84375 1.359375 L 10.203125 1.46875 Z M 12.5 -20.8125 L 15.859375 -18.515625 L 14.625 -15.859375 L 11.265625 -18.109375 Z M 16.390625 -17.390625 L 19.75 -15.09375 L 18.515625 -12.4375 L 15.15625 -14.6875 Z M 11.96875 -16.390625 L 15.328125 -14.09375 L 14.09375 -11.4375 L 10.734375 -13.6875 Z M 11.96875 -16.390625 "/></g></g></g><g fill="#092f62" fill-opacity="1"><g transform="translate(553.784748, 75.245345)"><g><path d="M 11.625 -3.1875 L 11.625 0 L 10.96875 0 L 10.328125 -0.125 L 9.265625 -0.40625 L 8.546875 -0.765625 L 7.78125 -1.46875 L 7.3125 -2.296875 L 7.015625 -3.71875 L 6.671875 -2.953125 L 6.1875 -2.0625 L 5.609375 -1.234375 L 5.078125 -0.703125 L 4.125 -0.171875 L 2.828125 0 L 0 0 L 0 -3.1875 L 3.421875 -3.1875 L 4.3125 -3.25 L 5.125 -3.484375 L 5.71875 -4.015625 L 6.140625 -4.65625 L 6.546875 -5.359375 L 7.140625 -6.1875 L 7.90625 -6.953125 L 7.90625 -5.25 L 8.375 -4.421875 L 9.078125 -3.890625 L 9.90625 -3.359375 L 10.96875 -3.1875 Z M 11.09375 -17.984375 L 10.140625 -14.859375 L 6.375 -16.859375 L 7.3125 -20.109375 Z M 6.484375 -16.28125 L 5.546875 -13.15625 L 1.765625 -15.15625 L 2.71875 -18.40625 Z M 6.484375 -16.28125 "/></g></g></g><g fill="#092f62" fill-opacity="1"><g transform="translate(564.977829, 75.245345)"><g><path d="M 0 0 L 0 -3.25 L 2.234375 -3.25 L 3.1875 -3.296875 L 4.015625 -3.484375 L 5.359375 -3.953125 L 6.421875 -4.421875 L 7.3125 -4.890625 L 8.015625 -5.546875 L 8.015625 -5.890625 L 7.25 -7.015625 L 6.546875 -7.90625 L 5.359375 -9.375 L 4.484375 -10.5625 L 3.65625 -11.796875 L 3.1875 -12.671875 L 2.828125 -13.734375 L 2.421875 -13.921875 L 2.765625 -16.921875 L 5.609375 -14.6875 L 6.546875 -13.859375 L 5.015625 -13.859375 L 5.015625 -13.390625 L 5.890625 -12.328125 L 6.953125 -11.140625 L 7.96875 -9.90625 L 8.671875 -8.671875 L 8.90625 -7.78125 L 8.90625 -5.546875 L 8.734375 -4.59375 L 8.25 -3.65625 L 7.484375 -2.65625 L 6.671875 -1.953125 L 5.71875 -1.234375 L 4.78125 -0.703125 L 3.78125 -0.234375 L 2.125 0 Z M 5.78125 -25.953125 L 4.84375 -22.828125 L 1.0625 -24.828125 L 2 -28.078125 Z M 5.78125 -25.953125 "/></g></g></g><g fill="#092f62" fill-opacity="1"><g transform="translate(574.286993, 75.245345)"><g/></g></g></svg>